<svg 
 xmlns="http://www.w3.org/2000/svg"
 xmlns:xlink="http://www.w3.org/1999/xlink"
 width="47px" height="38px">
<defs>
<filter filterUnits="userSpaceOnUse" id="Filter_0" x="0px" y="0px" width="47px" height="38px"  >
    <feOffset in="SourceAlpha" dx="0" dy="0" />
    <feGaussianBlur result="blurOut" stdDeviation="2.449" />
    <feFlood flood-color="rgb(187, 142, 255)" result="floodOut" />
    <feComposite operator="atop" in="floodOut" in2="blurOut" />
    <feComponentTransfer><feFuncA type="linear" slope="1"/></feComponentTransfer>
    <feMerge>
    <feMergeNode/>
    <feMergeNode in="SourceGraphic"/>
  </feMerge>
</filter>

</defs>
<g filter="url(#Filter_0)">
<path fill-rule="evenodd"  fill="rgb(195, 164, 252)"
 d="M40.794,13.643 C40.641,13.803 40.437,13.883 40.233,13.883 C40.041,13.883 39.849,13.812 39.699,13.670 C35.217,9.401 29.367,7.050 23.226,7.050 C17.081,7.050 11.231,9.394 6.751,13.646 C6.443,13.939 5.951,13.930 5.659,13.617 C5.365,13.308 5.376,12.817 5.688,12.525 C10.455,7.996 16.684,5.502 23.226,5.502 C29.764,5.502 35.993,8.004 40.766,12.550 C41.075,12.844 41.088,13.334 40.794,13.643 ZM23.226,13.238 C27.674,13.238 31.941,14.908 35.239,17.939 C35.554,18.228 35.574,18.717 35.285,19.031 C35.132,19.198 34.923,19.281 34.716,19.281 C34.529,19.281 34.342,19.214 34.194,19.077 C31.180,16.309 27.286,14.786 23.226,14.786 C19.166,14.786 15.271,16.309 12.258,19.077 C11.947,19.365 11.455,19.347 11.166,19.031 C10.877,18.717 10.897,18.226 11.213,17.939 C14.510,14.908 18.778,13.238 23.226,13.238 ZM23.226,20.974 C25.548,20.974 27.814,21.787 29.605,23.262 C29.936,23.533 29.982,24.021 29.710,24.350 C29.558,24.536 29.336,24.632 29.115,24.632 C28.942,24.632 28.767,24.575 28.625,24.456 C25.593,21.963 20.862,21.963 17.830,24.456 C17.501,24.729 17.014,24.680 16.743,24.350 C16.471,24.021 16.517,23.533 16.848,23.262 C18.637,21.787 20.903,20.974 23.226,20.974 ZM23.226,27.163 C24.504,27.163 25.545,28.205 25.545,29.484 C25.545,30.763 24.504,31.805 23.226,31.805 C21.947,31.805 20.907,30.763 20.907,29.484 C20.907,28.205 21.947,27.163 23.226,27.163 ZM23.226,30.257 C23.651,30.257 23.999,29.909 23.999,29.484 C23.999,29.058 23.651,28.711 23.226,28.711 C22.800,28.711 22.453,29.058 22.453,29.484 C22.453,29.909 22.800,30.257 23.226,30.257 Z"/>
</g>
</svg>