<svg 
 xmlns="http://www.w3.org/2000/svg"
 xmlns:xlink="http://www.w3.org/1999/xlink"
 width="53px" height="53px">
<defs>
<filter filterUnits="userSpaceOnUse" id="Filter_0" x="0px" y="0px" width="53px" height="53px"  >
    <feOffset in="SourceAlpha" dx="0" dy="0" />
    <feGaussianBlur result="blurOut" stdDeviation="2.449" />
    <feFlood flood-color="rgb(187, 142, 255)" result="floodOut" />
    <feComposite operator="atop" in="floodOut" in2="blurOut" />
    <feComponentTransfer><feFuncA type="linear" slope="1"/></feComponentTransfer>
    <feMerge>
    <feMergeNode/>
    <feMergeNode in="SourceGraphic"/>
  </feMerge>
</filter>

</defs>
<g filter="url(#Filter_0)">
<path fill-rule="evenodd"  fill="rgb(195, 164, 252)"
 d="M26.000,46.672 C14.602,46.672 5.328,37.398 5.328,25.999 C5.328,14.601 14.602,5.328 26.000,5.328 C37.398,5.328 46.672,14.601 46.672,25.999 C46.672,37.398 37.398,46.672 26.000,46.672 ZM26.861,7.094 L26.861,9.635 C26.861,10.110 26.476,10.496 26.000,10.496 C25.524,10.496 25.139,10.110 25.139,9.635 L25.139,7.094 C15.378,7.536 7.536,15.378 7.094,25.138 L9.635,25.138 C10.111,25.138 10.496,25.524 10.496,25.999 C10.496,26.476 10.111,26.861 9.635,26.861 L7.094,26.861 C7.536,36.621 15.379,44.463 25.139,44.905 L25.139,42.365 C25.139,41.889 25.524,41.504 26.000,41.504 C26.476,41.504 26.861,41.889 26.861,42.365 L26.861,44.905 C36.621,44.463 44.464,36.621 44.906,26.861 L42.365,26.861 C41.889,26.861 41.504,26.476 41.504,25.999 C41.504,25.524 41.889,25.138 42.365,25.138 L44.906,25.138 C44.464,15.378 36.621,7.536 26.861,7.094 ZM33.752,34.613 C33.532,34.613 33.311,34.529 33.143,34.361 L26.420,27.637 C26.282,27.673 26.149,27.722 26.000,27.722 C25.050,27.722 24.277,26.949 24.277,25.999 C24.277,25.108 24.968,24.396 25.838,24.310 L31.249,12.715 C31.451,12.286 31.964,12.101 32.393,12.299 C32.825,12.500 33.011,13.014 32.810,13.444 L27.395,25.046 C27.585,25.323 27.723,25.639 27.723,25.999 C27.723,26.148 27.673,26.281 27.638,26.420 L34.361,33.142 C34.697,33.479 34.697,34.024 34.361,34.361 C34.193,34.529 33.972,34.613 33.752,34.613 Z"/>
</g>
</svg>