<svg 
 xmlns="http://www.w3.org/2000/svg"
 xmlns:xlink="http://www.w3.org/1999/xlink"
 width="69px" height="45px">
<defs>
<filter filterUnits="userSpaceOnUse" id="Filter_0" x="0px" y="0px" width="69px" height="45px"  >
    <feOffset in="SourceAlpha" dx="0" dy="2" />
    <feGaussianBlur result="blurOut" stdDeviation="2.449" />
    <feFlood flood-color="rgb(187, 142, 255)" result="floodOut" />
    <feComposite operator="atop" in="floodOut" in2="blurOut" />
    <feComponentTransfer><feFuncA type="linear" slope="1"/></feComponentTransfer>
    <feMerge>
    <feMergeNode/>
    <feMergeNode in="SourceGraphic"/>
  </feMerge>
</filter>

</defs>
<g filter="url(#Filter_0)">
<path fill-rule="evenodd"  fill="rgb(195, 164, 252)"
 d="M61.840,24.800 C62.370,24.800 62.800,25.230 62.800,25.760 L62.800,35.360 C62.800,35.890 62.370,36.320 61.840,36.320 L6.160,36.320 C5.630,36.320 5.200,35.890 5.200,35.360 L5.200,25.760 C5.200,25.230 5.630,24.800 6.160,24.800 C8.811,24.800 10.960,22.651 10.960,20.000 C10.960,17.349 8.811,15.200 6.160,15.200 C5.630,15.200 5.200,14.770 5.200,14.240 L5.200,4.640 C5.200,4.110 5.630,3.680 6.160,3.680 L61.840,3.680 C62.370,3.680 62.800,4.110 62.800,4.640 L62.800,14.240 C62.800,14.770 62.370,15.200 61.840,15.200 C59.189,15.200 57.040,17.349 57.040,20.000 C57.040,22.651 59.189,24.800 61.840,24.800 ZM55.183,20.955 C54.656,17.281 57.206,13.875 60.880,13.348 L60.880,5.600 L7.120,5.600 L7.120,13.348 C10.073,13.772 12.393,16.092 12.817,19.045 C13.344,22.719 10.794,26.124 7.120,26.652 L7.120,34.400 L60.880,34.400 L60.880,26.652 C57.927,26.228 55.607,23.908 55.183,20.955 ZM57.040,30.560 L58.960,30.560 L58.960,32.480 L57.040,32.480 L57.040,30.560 ZM45.520,29.600 C43.399,29.600 41.680,27.881 41.680,25.760 C41.680,23.639 43.399,21.920 45.520,21.920 C47.641,21.920 49.360,23.639 49.360,25.760 C49.360,27.881 47.641,29.600 45.520,29.600 ZM45.520,23.840 C44.460,23.840 43.600,24.699 43.600,25.760 C43.600,26.820 44.460,27.680 45.520,27.680 C46.580,27.680 47.440,26.820 47.440,25.760 C47.440,24.699 46.580,23.840 45.520,23.840 ZM31.401,26.999 L46.761,11.639 L48.119,12.997 L32.759,28.356 L31.401,26.999 ZM34.000,18.080 C31.879,18.080 30.160,16.360 30.160,14.240 C30.160,12.119 31.879,10.400 34.000,10.400 C36.121,10.400 37.840,12.119 37.840,14.240 C37.840,16.360 36.121,18.080 34.000,18.080 ZM34.000,12.320 C32.939,12.320 32.080,13.179 32.080,14.240 C32.080,15.300 32.939,16.160 34.000,16.160 C35.060,16.160 35.920,15.300 35.920,14.240 C35.920,13.179 35.060,12.320 34.000,12.320 ZM22.480,30.560 L24.400,30.560 L24.400,32.480 L22.480,32.480 L22.480,30.560 ZM22.480,26.720 L24.400,26.720 L24.400,28.640 L22.480,28.640 L22.480,26.720 ZM22.480,22.880 L24.400,22.880 L24.400,24.800 L22.480,24.800 L22.480,22.880 ZM22.480,19.040 L24.400,19.040 L24.400,20.960 L22.480,20.960 L22.480,19.040 ZM22.480,15.200 L24.400,15.200 L24.400,17.120 L22.480,17.120 L22.480,15.200 ZM22.480,11.360 L24.400,11.360 L24.400,13.280 L22.480,13.280 L22.480,11.360 ZM22.480,7.520 L24.400,7.520 L24.400,9.440 L22.480,9.440 L22.480,7.520 ZM58.960,9.440 L57.040,9.440 L57.040,7.520 L58.960,7.520 L58.960,9.440 ZM9.040,7.520 L10.960,7.520 L10.960,9.440 L9.040,9.440 L9.040,7.520 ZM9.040,30.560 L10.960,30.560 L10.960,32.480 L9.040,32.480 L9.040,30.560 Z"/>
</g>
</svg>