<svg 
 xmlns="http://www.w3.org/2000/svg"
 xmlns:xlink="http://www.w3.org/1999/xlink"
 width="45px" height="51px">
<defs>
<filter filterUnits="userSpaceOnUse" id="Filter_0" x="0px" y="0px" width="45px" height="51px"  >
    <feOffset in="SourceAlpha" dx="0" dy="2" />
    <feGaussianBlur result="blurOut" stdDeviation="2.449" />
    <feFlood flood-color="rgb(187, 142, 255)" result="floodOut" />
    <feComposite operator="atop" in="floodOut" in2="blurOut" />
    <feComponentTransfer><feFuncA type="linear" slope="1"/></feComponentTransfer>
    <feMerge>
    <feMergeNode/>
    <feMergeNode in="SourceGraphic"/>
  </feMerge>
</filter>

</defs>
<g filter="url(#Filter_0)">
<path fill-rule="evenodd"  fill="rgb(195, 164, 252)"
 d="M37.048,39.188 C28.195,42.594 18.248,38.181 14.836,29.329 C14.776,29.162 14.716,29.006 14.656,28.838 L32.411,28.838 C33.072,28.838 33.613,28.298 33.613,27.638 C33.613,26.979 33.072,26.439 32.411,26.439 L14.019,26.439 C13.659,24.544 13.623,22.589 13.899,20.682 L34.333,20.682 C34.994,20.682 35.535,20.142 35.535,19.483 C35.535,18.823 34.994,18.284 34.333,18.284 L14.440,18.284 C17.167,9.216 26.753,4.071 35.847,6.794 C36.243,6.914 36.652,7.046 37.060,7.201 C37.673,7.441 38.370,7.141 38.622,6.518 C38.862,5.906 38.562,5.210 37.937,4.959 L37.925,4.959 C27.834,1.085 16.506,6.110 12.614,16.185 C12.349,16.868 12.121,17.564 11.941,18.271 L7.184,18.271 C6.523,18.271 5.983,18.811 5.983,19.471 C5.983,20.131 6.523,20.670 7.184,20.670 L11.473,20.670 C11.232,22.589 11.268,24.520 11.581,26.427 L7.184,26.427 C6.523,26.427 5.983,26.967 5.983,27.626 C5.983,28.286 6.523,28.826 7.184,28.826 L12.145,28.826 C15.281,39.164 26.213,45.005 36.556,41.887 C37.012,41.743 37.469,41.587 37.913,41.419 C38.526,41.179 38.838,40.483 38.598,39.872 C38.358,39.260 37.661,38.948 37.048,39.188 Z"/>
</g>
</svg>