<svg 
 xmlns="http://www.w3.org/2000/svg"
 xmlns:xlink="http://www.w3.org/1999/xlink"
 width="49px" height="49px">
<defs>
<filter filterUnits="userSpaceOnUse" id="Filter_0" x="0px" y="0px" width="49px" height="49px"  >
    <feOffset in="SourceAlpha" dx="0" dy="0" />
    <feGaussianBlur result="blurOut" stdDeviation="2.449" />
    <feFlood flood-color="rgb(187, 142, 255)" result="floodOut" />
    <feComposite operator="atop" in="floodOut" in2="blurOut" />
    <feComponentTransfer><feFuncA type="linear" slope="1"/></feComponentTransfer>
    <feMerge>
    <feMergeNode/>
    <feMergeNode in="SourceGraphic"/>
  </feMerge>
</filter>

</defs>
<g filter="url(#Filter_0)">
<path fill-rule="evenodd"  fill="rgb(195, 164, 252)"
 d="M41.818,42.664 L39.360,42.664 L30.758,42.664 L25.843,42.664 L22.157,42.664 L17.241,42.664 L8.640,42.664 L6.182,42.664 C5.814,42.664 5.568,42.418 5.568,42.049 C5.568,41.680 5.814,41.435 6.182,41.435 L8.026,41.435 L8.026,27.299 C8.026,26.930 8.271,26.685 8.640,26.685 L16.627,26.685 L16.627,16.237 C16.627,15.868 16.873,15.622 17.241,15.622 L30.758,15.622 C31.127,15.622 31.373,15.868 31.373,16.237 L31.373,26.685 L39.360,26.685 C39.729,26.685 39.974,26.930 39.974,27.299 L39.974,41.435 L41.818,41.435 C42.186,41.435 42.432,41.680 42.432,42.049 C42.432,42.418 42.186,42.664 41.818,42.664 ZM16.627,27.914 L9.254,27.914 L9.254,41.435 L16.627,41.435 L16.627,27.914 ZM22.771,41.435 L25.229,41.435 L25.229,36.518 L22.771,36.518 L22.771,41.435 ZM30.144,27.299 L30.144,16.852 L17.856,16.852 L17.856,27.299 L17.856,41.435 L21.542,41.435 L21.542,35.904 C21.542,35.534 21.788,35.289 22.157,35.289 L25.843,35.289 C26.212,35.289 26.458,35.534 26.458,35.904 L26.458,41.435 L30.144,41.435 L30.144,27.299 ZM38.746,27.914 L31.373,27.914 L31.373,41.435 L38.746,41.435 L38.746,27.914 ZM25.229,30.987 L25.229,26.070 C25.229,25.702 25.474,25.456 25.843,25.456 L28.301,25.456 C28.669,25.456 28.915,25.702 28.915,26.070 L28.915,30.987 C28.915,31.355 28.669,31.601 28.301,31.601 L25.843,31.601 C25.474,31.601 25.229,31.355 25.229,30.987 ZM26.458,30.372 L27.686,30.372 L27.686,26.685 L26.458,26.685 L26.458,30.372 ZM28.301,24.227 L25.843,24.227 C25.474,24.227 25.229,23.981 25.229,23.612 L25.229,18.695 C25.229,18.326 25.474,18.081 25.843,18.081 L28.301,18.081 C28.669,18.081 28.915,18.326 28.915,18.695 L28.915,23.612 C28.915,23.981 28.669,24.227 28.301,24.227 ZM27.686,19.310 L26.458,19.310 L26.458,22.997 L27.686,22.997 L27.686,19.310 ZM22.157,31.601 L19.699,31.601 C19.330,31.601 19.085,31.355 19.085,30.987 L19.085,26.070 C19.085,25.702 19.330,25.456 19.699,25.456 L22.157,25.456 C22.525,25.456 22.771,25.702 22.771,26.070 L22.771,30.987 C22.771,31.355 22.525,31.601 22.157,31.601 ZM21.542,26.685 L20.314,26.685 L20.314,30.372 L21.542,30.372 L21.542,26.685 ZM22.157,24.227 L19.699,24.227 C19.330,24.227 19.085,23.981 19.085,23.612 L19.085,18.695 C19.085,18.326 19.330,18.081 19.699,18.081 L22.157,18.081 C22.525,18.081 22.771,18.326 22.771,18.695 L22.771,23.612 C22.771,23.981 22.525,24.227 22.157,24.227 ZM21.542,19.310 L20.314,19.310 L20.314,22.997 L21.542,22.997 L21.542,19.310 ZM38.807,10.952 L39.360,13.656 C39.421,13.901 39.298,14.147 39.114,14.271 C38.991,14.332 38.868,14.393 38.746,14.393 C38.623,14.393 38.500,14.332 38.377,14.271 L36.288,12.734 L34.199,14.271 C34.015,14.393 33.707,14.455 33.523,14.271 C33.277,14.147 33.216,13.901 33.277,13.656 L33.830,10.952 L31.680,9.354 C31.496,9.170 31.373,8.924 31.496,8.678 C31.496,8.432 31.741,8.248 31.987,8.248 L34.691,8.248 L35.735,6.158 C35.919,5.728 36.595,5.728 36.841,6.158 L37.885,8.248 L40.589,8.248 C40.835,8.248 41.080,8.432 41.142,8.678 C41.203,8.924 41.142,9.231 40.957,9.354 L38.807,10.952 ZM37.517,9.477 C37.271,9.477 37.087,9.354 36.964,9.108 L36.288,7.756 L35.612,9.108 C35.489,9.354 35.305,9.477 35.059,9.477 L33.830,9.477 L34.813,10.214 C34.998,10.337 35.121,10.583 35.059,10.829 L34.752,12.304 L35.919,11.443 C36.042,11.382 36.165,11.320 36.288,11.320 C36.411,11.320 36.534,11.382 36.657,11.443 L37.824,12.304 L37.517,10.829 C37.455,10.583 37.578,10.337 37.762,10.214 L38.746,9.477 L37.517,9.477 ZM26.519,10.952 L27.072,13.656 C27.133,13.901 27.011,14.147 26.826,14.271 C26.703,14.332 26.580,14.393 26.458,14.393 C26.335,14.393 26.212,14.332 26.089,14.271 L24.000,12.734 L21.911,14.271 C21.727,14.393 21.419,14.455 21.235,14.271 C20.989,14.147 20.928,13.901 20.989,13.656 L21.542,10.952 L19.392,9.354 C19.208,9.170 19.085,8.924 19.208,8.678 C19.208,8.432 19.453,8.248 19.699,8.248 L22.403,8.248 L23.447,6.158 C23.631,5.728 24.307,5.728 24.553,6.158 L25.597,8.248 L28.301,8.248 C28.547,8.248 28.792,8.432 28.854,8.678 C28.915,8.924 28.854,9.231 28.669,9.354 L26.519,10.952 ZM25.229,9.477 C24.983,9.477 24.799,9.354 24.676,9.108 L24.000,7.756 L23.324,9.108 C23.201,9.354 23.017,9.477 22.771,9.477 L21.542,9.477 L22.525,10.214 C22.710,10.337 22.833,10.583 22.771,10.829 L22.464,12.304 L23.631,11.443 C23.754,11.382 23.877,11.320 24.000,11.320 C24.123,11.320 24.246,11.382 24.369,11.443 L25.536,12.304 L25.229,10.829 C25.167,10.583 25.290,10.337 25.474,10.214 L26.458,9.477 L25.229,9.477 ZM14.231,10.952 L14.784,13.656 C14.845,13.901 14.723,14.147 14.538,14.271 C14.415,14.332 14.292,14.393 14.170,14.393 C14.047,14.393 13.924,14.332 13.801,14.271 L11.712,12.734 L9.623,14.271 C9.439,14.393 9.132,14.455 8.947,14.271 C8.701,14.147 8.640,13.901 8.701,13.656 L9.254,10.952 L7.043,9.354 C6.858,9.170 6.735,8.924 6.858,8.678 C6.920,8.432 7.165,8.248 7.411,8.248 L10.114,8.248 L11.159,6.158 C11.343,5.728 12.081,5.728 12.265,6.158 L13.309,8.248 L16.013,8.248 C16.259,8.248 16.504,8.432 16.566,8.678 C16.627,8.924 16.566,9.231 16.381,9.354 L14.231,10.952 ZM12.941,9.477 C12.695,9.477 12.511,9.354 12.388,9.108 L11.712,7.756 L11.036,9.108 C10.913,9.354 10.729,9.477 10.483,9.477 L9.254,9.477 L10.237,10.214 C10.422,10.337 10.545,10.583 10.483,10.829 L10.176,12.304 L11.343,11.443 C11.466,11.382 11.589,11.320 11.712,11.320 C11.835,11.320 11.958,11.382 12.081,11.443 L13.248,12.304 L12.941,10.829 C12.879,10.583 13.002,10.337 13.187,10.214 L14.170,9.477 L12.941,9.477 Z"/>
</g>
</svg>