<svg 
 xmlns="http://www.w3.org/2000/svg"
 xmlns:xlink="http://www.w3.org/1999/xlink"
 width="55px" height="55px">
<defs>
<filter filterUnits="userSpaceOnUse" id="Filter_0" x="0px" y="0px" width="55px" height="55px"  >
    <feOffset in="SourceAlpha" dx="0" dy="0" />
    <feGaussianBlur result="blurOut" stdDeviation="2.449" />
    <feFlood flood-color="rgb(187, 142, 255)" result="floodOut" />
    <feComposite operator="atop" in="floodOut" in2="blurOut" />
    <feComponentTransfer><feFuncA type="linear" slope="1"/></feComponentTransfer>
    <feMerge>
    <feMergeNode/>
    <feMergeNode in="SourceGraphic"/>
  </feMerge>
</filter>

</defs>
<g filter="url(#Filter_0)">
<path fill-rule="evenodd"  fill="rgb(195, 164, 252)"
 d="M45.332,38.727 C43.149,42.133 40.073,44.859 36.437,46.611 L35.884,45.463 C42.931,42.066 47.485,34.819 47.485,26.999 C47.485,15.704 38.295,6.515 27.000,6.515 C15.704,6.515 6.515,15.704 6.515,26.999 C6.515,34.818 11.069,42.066 18.116,45.464 L17.562,46.612 C13.926,44.859 10.850,42.132 8.667,38.727 C6.425,35.229 5.240,31.174 5.240,26.999 C5.240,21.187 7.503,15.723 11.613,11.613 C15.723,7.503 21.188,5.240 27.000,5.240 C32.812,5.240 38.277,7.503 42.387,11.613 C46.496,15.723 48.760,21.187 48.760,26.999 C48.760,31.174 47.575,35.229 45.332,38.727 ZM10.866,26.953 C10.866,18.057 18.103,10.819 27.000,10.819 C35.896,10.819 43.134,18.057 43.134,26.953 C43.134,32.896 39.883,38.340 34.649,41.162 L34.044,40.039 C38.865,37.440 41.859,32.426 41.859,26.953 C41.859,18.760 35.193,12.094 27.000,12.094 C18.806,12.094 12.141,18.760 12.141,26.953 C12.141,32.426 15.135,37.440 19.956,40.039 L19.351,41.162 C14.117,38.339 10.866,32.895 10.866,26.953 ZM15.942,27.614 C15.942,21.517 20.902,16.556 27.000,16.556 C33.098,16.556 38.058,21.517 38.058,27.614 C38.058,31.327 36.210,34.773 33.114,36.830 L32.408,35.769 C35.148,33.947 36.783,30.899 36.783,27.614 C36.783,22.220 32.395,17.831 27.000,17.831 C21.605,17.831 17.217,22.220 17.217,27.614 C17.217,30.899 18.852,33.947 21.592,35.769 L20.886,36.830 C17.790,34.773 15.942,31.327 15.942,27.614 ZM22.503,26.999 C22.503,24.520 24.520,22.502 27.000,22.502 C29.480,22.502 31.497,24.520 31.497,26.999 C31.497,28.776 30.461,30.316 28.961,31.045 L30.855,48.760 L23.144,48.760 L25.039,31.045 C23.539,30.316 22.503,28.777 22.503,26.999 ZM24.563,47.485 L29.437,47.485 L27.720,31.438 C27.715,31.439 27.711,31.440 27.706,31.440 C27.679,31.445 27.652,31.448 27.625,31.452 C27.583,31.458 27.541,31.463 27.499,31.468 C27.471,31.471 27.443,31.474 27.414,31.477 C27.371,31.480 27.328,31.484 27.284,31.487 C27.258,31.488 27.232,31.490 27.206,31.491 C27.145,31.494 27.084,31.495 27.023,31.496 C27.015,31.496 27.008,31.497 27.000,31.497 C26.992,31.497 26.985,31.496 26.977,31.496 C26.916,31.495 26.855,31.494 26.794,31.491 C26.768,31.490 26.742,31.488 26.716,31.487 C26.672,31.484 26.629,31.480 26.586,31.477 C26.557,31.474 26.529,31.471 26.501,31.468 C26.459,31.463 26.417,31.458 26.375,31.452 C26.348,31.448 26.321,31.445 26.294,31.440 C26.289,31.440 26.284,31.439 26.279,31.438 L24.563,47.485 ZM25.989,30.058 C26.012,30.065 26.036,30.074 26.059,30.081 C26.074,30.085 26.089,30.089 26.104,30.094 C26.217,30.126 26.333,30.153 26.449,30.173 C26.454,30.174 26.459,30.175 26.464,30.176 C26.504,30.183 26.544,30.189 26.585,30.194 C26.591,30.195 26.597,30.195 26.603,30.196 C26.644,30.201 26.685,30.205 26.726,30.209 C26.729,30.209 26.733,30.209 26.736,30.209 C26.912,30.224 27.088,30.224 27.264,30.209 C27.267,30.209 27.270,30.209 27.274,30.209 C27.315,30.205 27.356,30.201 27.397,30.196 C27.403,30.195 27.409,30.195 27.415,30.194 C27.455,30.189 27.496,30.183 27.536,30.176 C27.541,30.175 27.546,30.174 27.551,30.173 C27.667,30.153 27.783,30.126 27.896,30.094 C27.911,30.089 27.926,30.085 27.941,30.081 C27.964,30.074 27.988,30.065 28.011,30.058 C29.294,29.633 30.222,28.423 30.222,26.999 C30.222,25.223 28.777,23.778 27.000,23.778 C25.223,23.778 23.778,25.223 23.778,26.999 C23.778,28.423 24.706,29.633 25.989,30.058 Z"/>
</g>
</svg>