<svg 
 xmlns="http://www.w3.org/2000/svg"
 xmlns:xlink="http://www.w3.org/1999/xlink"
 width="21px" height="20px">
<path fill-rule="evenodd"  fill="rgb(255, 255, 255)"
 d="M17.081,11.916 C16.661,11.480 16.156,11.247 15.620,11.247 C15.088,11.247 14.578,11.476 14.142,11.912 L12.776,13.274 C12.663,13.214 12.551,13.158 12.443,13.101 C12.287,13.023 12.140,12.950 12.015,12.871 C10.736,12.059 9.573,11.000 8.458,9.629 C7.917,8.947 7.555,8.371 7.291,7.788 C7.645,7.464 7.974,7.126 8.294,6.803 C8.415,6.681 8.536,6.556 8.657,6.435 C9.564,5.527 9.564,4.351 8.657,3.443 L7.477,2.263 C7.343,2.128 7.204,1.990 7.075,1.852 C6.815,1.584 6.543,1.307 6.262,1.047 C5.843,0.633 5.342,0.412 4.814,0.412 C4.287,0.412 3.777,0.633 3.345,1.047 C3.340,1.052 3.340,1.052 3.336,1.056 L1.866,2.539 C1.313,3.093 0.998,3.767 0.928,4.549 C0.825,5.812 1.196,6.988 1.482,7.758 C2.182,9.646 3.228,11.398 4.788,13.274 C6.681,15.535 8.959,17.321 11.561,18.578 C12.555,19.050 13.882,19.608 15.365,19.703 C15.456,19.707 15.551,19.712 15.637,19.712 C16.635,19.712 17.474,19.353 18.131,18.640 C18.135,18.631 18.144,18.627 18.148,18.618 C18.373,18.346 18.632,18.098 18.904,17.835 C19.090,17.658 19.281,17.471 19.466,17.278 C19.894,16.832 20.119,16.313 20.119,15.782 C20.119,15.246 19.890,14.731 19.453,14.299 L17.081,11.916 ZM18.628,16.469 C18.624,16.469 18.624,16.473 18.628,16.469 C18.459,16.651 18.287,16.815 18.101,16.997 C17.820,17.265 17.535,17.546 17.266,17.861 C16.830,18.327 16.316,18.548 15.641,18.548 C15.577,18.548 15.507,18.548 15.443,18.544 C14.159,18.462 12.966,17.960 12.071,17.533 C9.625,16.347 7.477,14.666 5.692,12.535 C4.218,10.758 3.232,9.115 2.580,7.351 C2.178,6.275 2.031,5.436 2.095,4.645 C2.139,4.139 2.333,3.720 2.692,3.361 L4.166,1.886 C4.378,1.688 4.602,1.580 4.823,1.580 C5.095,1.580 5.315,1.744 5.454,1.882 C5.458,1.886 5.463,1.891 5.467,1.895 C5.730,2.141 5.981,2.396 6.245,2.669 C6.379,2.808 6.517,2.946 6.655,3.089 L7.835,4.269 C8.294,4.727 8.294,5.151 7.835,5.609 C7.710,5.734 7.589,5.859 7.464,5.981 C7.101,6.353 6.755,6.698 6.379,7.035 C6.370,7.045 6.362,7.049 6.357,7.058 C5.985,7.429 6.055,7.792 6.132,8.039 C6.137,8.052 6.141,8.065 6.145,8.078 C6.452,8.821 6.885,9.522 7.542,10.356 L7.546,10.360 C8.739,11.830 9.996,12.976 11.384,13.853 C11.561,13.965 11.743,14.057 11.916,14.143 C12.071,14.221 12.218,14.295 12.343,14.372 C12.361,14.381 12.378,14.394 12.395,14.403 C12.542,14.476 12.681,14.510 12.823,14.510 C13.182,14.510 13.407,14.286 13.480,14.212 L14.958,12.734 C15.105,12.587 15.339,12.409 15.611,12.409 C15.879,12.409 16.099,12.578 16.234,12.725 C16.238,12.729 16.238,12.729 16.242,12.734 L18.624,15.115 C19.069,15.557 19.069,16.011 18.628,16.469 Z"/>
</svg>