<svg 
 xmlns="http://www.w3.org/2000/svg"
 xmlns:xlink="http://www.w3.org/1999/xlink"
 width="19px" height="24px">
<path fill-rule="evenodd"  fill="rgb(255, 255, 255)"
 d="M17.708,6.421 C17.687,6.173 17.477,5.983 17.228,5.985 L13.579,5.985 L13.579,4.604 C13.579,2.353 11.751,0.527 9.498,0.527 C7.244,0.527 5.416,2.353 5.416,4.604 L5.416,5.985 L1.767,5.985 C1.519,5.986 1.311,6.175 1.287,6.421 L0.029,20.867 C-0.028,21.536 0.199,22.200 0.654,22.694 C1.109,23.190 1.752,23.471 2.425,23.471 L16.575,23.471 C17.248,23.471 17.890,23.190 18.345,22.694 C18.801,22.200 19.028,21.536 18.971,20.867 L17.708,6.421 ZM6.377,4.604 C6.377,2.882 7.774,1.487 9.498,1.487 C11.221,1.487 12.618,2.882 12.618,4.604 L12.618,5.985 L6.377,5.985 L6.377,4.604 ZM17.636,22.046 C17.364,22.345 16.979,22.514 16.575,22.512 L2.420,22.512 C2.016,22.512 1.631,22.343 1.358,22.046 C1.085,21.749 0.950,21.350 0.985,20.948 L2.204,6.944 L5.416,6.944 L5.416,9.936 C4.644,10.174 4.162,10.940 4.282,11.738 C4.402,12.536 5.089,13.126 5.896,13.126 C6.704,13.126 7.390,12.536 7.511,11.738 C7.631,10.940 7.149,10.174 6.377,9.936 L6.377,6.939 L12.618,6.939 L12.618,9.936 C11.846,10.174 11.364,10.940 11.484,11.738 C11.604,12.536 12.291,13.126 13.099,13.126 C13.906,13.126 14.593,12.536 14.713,11.738 C14.833,10.940 14.351,10.174 13.579,9.936 L13.579,6.939 L16.786,6.939 L18.006,20.943 C18.045,21.347 17.910,21.747 17.636,22.046 L17.636,22.046 ZM5.824,10.829 C5.872,10.835 5.921,10.835 5.969,10.829 C6.324,10.867 6.587,11.176 6.568,11.532 C6.548,11.889 6.254,12.168 5.896,12.168 C5.539,12.168 5.244,11.889 5.225,11.532 C5.206,11.176 5.469,10.867 5.824,10.829 L5.824,10.829 ZM13.027,10.829 C13.074,10.835 13.123,10.835 13.171,10.829 C13.526,10.867 13.789,11.176 13.770,11.532 C13.750,11.889 13.456,12.168 13.099,12.168 C12.741,12.168 12.447,11.889 12.427,11.532 C12.408,11.176 12.671,10.867 13.027,10.829 L13.027,10.829 Z"/>
</svg>