<svg 
 xmlns="http://www.w3.org/2000/svg"
 xmlns:xlink="http://www.w3.org/1999/xlink"
 width="41px" height="41px">
<defs>
<filter filterUnits="userSpaceOnUse" id="Filter_0" x="0px" y="0px" width="41px" height="41px"  >
    <feOffset in="SourceAlpha" dx="0" dy="0" />
    <feGaussianBlur result="blurOut" stdDeviation="2.449" />
    <feFlood flood-color="rgb(187, 142, 255)" result="floodOut" />
    <feComposite operator="atop" in="floodOut" in2="blurOut" />
    <feComponentTransfer><feFuncA type="linear" slope="1"/></feComponentTransfer>
    <feMerge>
    <feMergeNode/>
    <feMergeNode in="SourceGraphic"/>
  </feMerge>
</filter>

</defs>
<g filter="url(#Filter_0)">
<path fill-rule="evenodd"  fill="rgb(195, 164, 252)"
 d="M29.671,25.083 C27.159,25.083 25.105,23.329 25.105,21.174 C25.105,19.019 27.156,17.264 29.668,17.264 C30.903,17.264 32.034,17.690 32.860,18.377 L32.860,8.825 L20.119,13.107 L20.119,31.042 C20.119,33.197 18.081,34.952 15.569,34.952 C13.057,34.952 11.019,33.198 11.019,31.042 C11.019,28.887 13.059,27.133 15.571,27.133 C16.725,27.122 17.847,27.515 18.742,28.245 L18.742,12.612 C18.746,12.314 18.939,12.052 19.222,11.958 L33.308,7.212 C33.521,7.141 33.754,7.176 33.937,7.305 C34.120,7.434 34.232,7.641 34.237,7.865 L34.237,21.174 C34.237,23.329 32.183,25.083 29.671,25.083 ZM29.654,18.643 C27.901,18.643 26.476,19.779 26.476,21.174 C26.476,22.570 27.902,23.705 29.654,23.705 C31.407,23.705 32.833,22.569 32.833,21.174 C32.833,19.779 31.407,18.643 29.654,18.643 ZM15.579,28.512 C13.826,28.512 12.400,29.647 12.400,31.042 C12.400,32.438 13.826,33.573 15.579,33.573 C17.332,33.573 18.758,32.438 18.758,31.042 C18.758,29.647 17.332,28.512 15.579,28.512 ZM18.143,9.662 C17.919,9.769 17.655,9.746 17.452,9.602 L14.610,7.640 L14.610,21.838 C14.610,23.994 12.558,25.747 10.046,25.747 C7.534,25.747 5.482,23.994 5.482,21.838 C5.482,19.682 7.531,17.928 10.043,17.928 C11.279,17.928 12.406,18.354 13.232,19.041 L13.232,6.329 C13.228,6.075 13.367,5.840 13.591,5.720 C13.814,5.600 14.085,5.616 14.292,5.762 L18.224,8.466 C18.432,8.602 18.550,8.840 18.534,9.088 C18.517,9.336 18.367,9.556 18.143,9.662 ZM10.033,19.308 C8.280,19.308 6.854,20.442 6.854,21.838 C6.854,23.234 8.280,24.368 10.033,24.368 C11.786,24.368 13.212,23.234 13.212,21.838 C13.212,20.442 11.786,19.308 10.033,19.308 Z"/>
</g>
</svg>