<svg 
 xmlns="http://www.w3.org/2000/svg"
 xmlns:xlink="http://www.w3.org/1999/xlink"
 width="53px" height="53px">
<defs>
<filter filterUnits="userSpaceOnUse" id="Filter_0" x="0px" y="0px" width="53px" height="53px"  >
    <feOffset in="SourceAlpha" dx="0" dy="0" />
    <feGaussianBlur result="blurOut" stdDeviation="2.449" />
    <feFlood flood-color="rgb(187, 142, 255)" result="floodOut" />
    <feComposite operator="atop" in="floodOut" in2="blurOut" />
    <feComponentTransfer><feFuncA type="linear" slope="1"/></feComponentTransfer>
    <feMerge>
    <feMergeNode/>
    <feMergeNode in="SourceGraphic"/>
  </feMerge>
</filter>

</defs>
<g filter="url(#Filter_0)">
<path fill-rule="evenodd"  fill="rgb(195, 164, 252)"
 d="M35.680,46.080 C35.239,46.080 34.880,45.721 34.880,45.280 C34.880,44.839 35.239,44.480 35.680,44.480 C40.532,44.480 44.480,40.532 44.480,35.680 C44.480,35.239 44.839,34.880 45.280,34.880 C45.721,34.880 46.080,35.239 46.080,35.680 C46.080,41.414 41.415,46.080 35.680,46.080 ZM39.680,35.680 C39.680,35.239 40.039,34.880 40.480,34.880 C40.921,34.880 41.280,35.239 41.280,35.680 C41.280,38.767 38.768,41.280 35.680,41.280 C35.239,41.280 34.880,40.921 34.880,40.480 C34.880,40.038 35.239,39.680 35.680,39.680 C37.886,39.680 39.680,37.886 39.680,35.680 ZM37.083,34.424 C33.381,38.126 28.482,40.530 23.289,41.193 C23.256,41.198 23.222,41.200 23.188,41.200 C22.974,41.200 22.773,41.117 22.622,40.965 L13.434,31.777 C13.259,31.602 13.176,31.361 13.206,31.114 L14.895,17.312 L14.898,17.272 C14.936,15.547 16.371,14.144 18.097,14.144 C19.861,14.144 21.297,15.579 21.297,17.344 L21.297,20.795 L31.107,10.984 C31.712,10.379 32.516,10.046 33.370,10.046 C34.225,10.046 35.028,10.379 35.633,10.984 C35.921,11.273 36.149,11.606 36.309,11.975 L36.487,12.386 L36.875,12.163 C38.122,11.449 39.705,11.662 40.724,12.681 C41.720,13.677 41.951,15.181 41.300,16.425 L41.098,16.811 L41.500,16.980 C41.882,17.140 42.227,17.372 42.524,17.669 C43.542,18.687 43.754,20.271 43.040,21.520 L42.818,21.909 L43.229,22.086 C43.600,22.246 43.934,22.473 44.221,22.761 C44.825,23.364 45.157,24.167 45.157,25.023 C45.157,25.879 44.825,26.683 44.222,27.286 L37.083,34.424 ZM43.090,23.892 C42.466,23.268 41.452,23.268 40.827,23.892 L35.487,29.231 C35.196,29.523 34.736,29.547 34.418,29.288 C34.395,29.269 34.375,29.251 34.356,29.232 C34.044,28.920 34.044,28.412 34.356,28.100 C35.223,27.233 41.123,21.333 41.393,21.063 C42.017,20.439 42.016,19.424 41.393,18.801 C40.769,18.177 39.754,18.177 39.130,18.801 L32.093,25.838 C31.781,26.149 31.274,26.149 30.962,25.838 C30.650,25.526 30.650,25.018 30.962,24.706 L39.593,16.075 C39.895,15.773 40.061,15.372 40.061,14.944 C40.061,14.516 39.895,14.114 39.593,13.813 C39.290,13.510 38.888,13.344 38.461,13.344 C38.034,13.344 37.632,13.510 37.330,13.813 L28.699,22.444 C28.548,22.594 28.347,22.678 28.133,22.678 C27.920,22.678 27.719,22.594 27.568,22.444 C27.417,22.292 27.333,22.091 27.333,21.878 C27.333,21.664 27.417,21.463 27.568,21.312 L34.502,14.378 C35.125,13.755 35.125,12.740 34.501,12.115 C33.877,11.492 32.863,11.492 32.239,12.115 L21.062,23.292 C20.832,23.522 20.490,23.590 20.190,23.466 C19.890,23.341 19.697,23.051 19.697,22.726 L19.697,17.343 C19.697,16.462 18.979,15.744 18.097,15.744 C17.215,15.744 16.497,16.462 16.497,17.343 C16.497,17.377 16.495,17.410 16.491,17.441 L14.841,30.922 L23.474,39.554 L23.674,39.523 C28.292,38.805 32.653,36.592 35.952,33.292 L43.090,26.155 C43.392,25.853 43.558,25.451 43.558,25.023 C43.558,24.596 43.392,24.194 43.090,23.892 ZM16.320,12.320 C14.114,12.320 12.320,14.114 12.320,16.320 C12.320,16.761 11.961,17.120 11.520,17.120 C11.079,17.120 10.720,16.761 10.720,16.320 C10.720,13.232 13.232,10.720 16.320,10.720 C16.761,10.720 17.120,11.079 17.120,11.520 C17.120,11.961 16.761,12.320 16.320,12.320 ZM16.320,7.520 C11.468,7.520 7.520,11.468 7.520,16.320 C7.520,16.761 7.161,17.120 6.720,17.120 C6.279,17.120 5.920,16.761 5.920,16.320 C5.920,10.585 10.585,5.920 16.320,5.920 C16.761,5.920 17.120,6.279 17.120,6.720 C17.120,7.161 16.761,7.520 16.320,7.520 Z"/>
</g>
</svg>