<svg 
 xmlns="http://www.w3.org/2000/svg"
 xmlns:xlink="http://www.w3.org/1999/xlink"
 width="59px" height="59px">
<defs>
<filter filterUnits="userSpaceOnUse" id="Filter_0" x="0px" y="0px" width="59px" height="59px"  >
    <feOffset in="SourceAlpha" dx="0" dy="0" />
    <feGaussianBlur result="blurOut" stdDeviation="2.449" />
    <feFlood flood-color="rgb(187, 142, 255)" result="floodOut" />
    <feComposite operator="atop" in="floodOut" in2="blurOut" />
    <feComponentTransfer><feFuncA type="linear" slope="1"/></feComponentTransfer>
    <feMerge>
    <feMergeNode/>
    <feMergeNode in="SourceGraphic"/>
  </feMerge>
</filter>

</defs>
<g filter="url(#Filter_0)">
<path fill-rule="evenodd"  fill="rgb(195, 164, 252)"
 d="M50.733,32.460 C50.045,32.966 49.485,33.625 49.096,34.384 C49.042,35.273 49.199,36.161 49.554,36.976 C50.002,38.380 50.465,39.830 49.786,41.004 C49.098,42.195 47.595,42.519 46.142,42.833 C45.273,42.929 44.439,43.229 43.708,43.708 C43.229,44.440 42.928,45.274 42.832,46.144 C42.518,47.596 42.192,49.097 41.004,49.786 C39.828,50.466 38.379,50.002 36.977,49.554 C36.161,49.199 35.273,49.043 34.386,49.096 C33.625,49.485 32.966,50.045 32.460,50.733 C31.451,51.848 30.408,53.000 29.000,53.000 C27.592,53.000 26.549,51.848 25.540,50.733 C25.034,50.045 24.375,49.485 23.615,49.096 C22.727,49.042 21.839,49.199 21.023,49.554 C19.619,50.002 18.170,50.465 16.996,49.786 C15.805,49.097 15.481,47.595 15.167,46.142 C15.071,45.273 14.771,44.439 14.292,43.708 C13.560,43.228 12.726,42.928 11.856,42.832 C10.404,42.518 8.902,42.192 8.214,41.004 C7.534,39.829 7.997,38.380 8.446,36.976 C8.801,36.161 8.958,35.273 8.904,34.385 C8.515,33.625 7.955,32.966 7.267,32.460 C6.152,31.451 5.000,30.408 5.000,29.000 C5.000,27.592 6.152,26.548 7.267,25.540 C7.955,25.034 8.515,24.375 8.904,23.615 C8.958,22.727 8.801,21.838 8.446,21.023 C7.997,19.620 7.534,18.169 8.214,16.996 C8.902,15.804 10.405,15.481 11.858,15.167 C12.726,15.070 13.560,14.771 14.292,14.292 C14.773,13.560 15.074,12.725 15.172,11.856 C15.486,10.404 15.812,8.902 17.000,8.213 C18.175,7.533 19.625,7.998 21.027,8.446 C21.843,8.800 22.730,8.957 23.618,8.904 C24.379,8.515 25.038,7.955 25.544,7.267 C26.549,6.152 27.592,5.000 29.000,5.000 C30.408,5.000 31.451,6.152 32.460,7.267 C32.966,7.954 33.625,8.515 34.385,8.904 C35.273,8.957 36.161,8.800 36.977,8.446 C38.381,7.998 39.830,7.534 41.004,8.213 C42.195,8.902 42.519,10.405 42.833,11.858 C42.929,12.726 43.229,13.560 43.708,14.292 C44.439,14.773 45.274,15.074 46.144,15.172 C47.596,15.485 49.098,15.812 49.786,17.000 C50.465,18.174 50.002,19.624 49.554,21.027 C49.199,21.843 49.042,22.730 49.096,23.618 C49.484,24.378 50.045,25.038 50.733,25.544 C51.848,26.548 53.000,27.592 53.000,29.000 C53.000,30.408 51.848,31.451 50.733,32.460 ZM49.659,26.726 C48.721,26.037 47.991,25.103 47.550,24.027 C47.386,22.841 47.552,21.634 48.030,20.536 C48.373,19.465 48.726,18.357 48.402,17.796 C48.068,17.220 46.918,16.972 45.806,16.732 C44.630,16.602 43.512,16.149 42.577,15.423 C41.798,14.645 41.529,13.400 41.269,12.195 C41.029,11.083 40.781,9.932 40.202,9.597 C39.642,9.277 38.536,9.627 37.463,9.970 C36.366,10.447 35.158,10.613 33.972,10.450 C32.896,10.008 31.962,9.278 31.274,8.341 C30.499,7.484 29.698,6.600 29.000,6.600 C28.302,6.600 27.501,7.484 26.726,8.341 C26.037,9.279 25.104,10.008 24.027,10.450 C22.949,10.739 21.722,10.349 20.537,9.970 C19.465,9.627 18.360,9.272 17.800,9.598 C17.223,9.932 16.975,11.082 16.735,12.193 C16.605,13.370 16.152,14.488 15.426,15.423 C14.649,16.202 13.403,16.471 12.198,16.731 C11.086,16.971 9.936,17.219 9.601,17.797 C9.281,18.357 9.630,19.465 9.973,20.536 C10.451,21.634 10.617,22.842 10.453,24.028 C10.011,25.104 9.282,26.037 8.344,26.726 C7.485,27.500 6.600,28.302 6.600,29.000 C6.600,29.698 7.485,30.499 8.341,31.274 C9.279,31.962 10.009,32.896 10.450,33.973 C10.614,35.158 10.448,36.366 9.970,37.463 C9.627,38.534 9.274,39.640 9.598,40.200 C9.932,40.777 11.082,41.025 12.194,41.264 C13.370,41.395 14.488,41.848 15.423,42.574 C16.202,43.351 16.471,44.596 16.731,45.801 C16.971,46.913 17.219,48.064 17.798,48.399 C18.358,48.719 19.463,48.369 20.537,48.027 C21.396,47.702 22.300,47.507 23.217,47.449 C23.490,47.447 23.763,47.482 24.028,47.550 C25.104,47.992 26.037,48.721 26.726,49.659 C27.501,50.515 28.302,51.399 29.000,51.399 C29.698,51.399 30.499,50.515 31.274,49.659 C31.962,48.721 32.896,47.991 33.973,47.550 C35.158,47.387 36.366,47.553 37.463,48.030 C38.534,48.372 39.641,48.726 40.203,48.401 C40.780,48.068 41.028,46.918 41.268,45.806 C41.398,44.629 41.851,43.512 42.577,42.577 C43.354,41.797 44.600,41.529 45.805,41.268 C46.917,41.029 48.067,40.781 48.402,40.202 C48.722,39.642 48.373,38.534 48.030,37.463 C47.552,36.365 47.386,35.158 47.550,33.972 C47.992,32.895 48.721,31.962 49.659,31.274 C50.515,30.499 51.400,29.698 51.400,29.000 C51.400,28.302 50.515,27.500 49.659,26.726 ZM41.446,17.685 L40.314,18.817 C40.164,18.968 39.960,19.052 39.748,19.052 C39.306,19.052 38.948,18.693 38.948,18.251 C38.948,18.040 39.032,17.836 39.182,17.686 L40.314,16.554 C40.621,16.236 41.128,16.227 41.446,16.534 C41.763,16.841 41.772,17.348 41.465,17.666 C41.459,17.672 41.452,17.679 41.446,17.685 ZM38.094,14.850 L37.294,16.237 C37.151,16.485 36.886,16.637 36.600,16.637 C36.158,16.636 35.800,16.277 35.801,15.836 C35.801,15.696 35.838,15.558 35.908,15.436 L36.708,14.050 C36.926,13.666 37.415,13.532 37.799,13.750 C38.183,13.968 38.317,14.457 38.099,14.841 C38.097,14.844 38.095,14.847 38.094,14.850 ZM36.192,41.468 C36.573,41.245 37.063,41.373 37.287,41.753 C37.288,41.757 37.290,41.760 37.292,41.763 L38.092,43.149 C38.313,43.532 38.182,44.021 37.799,44.242 C37.678,44.312 37.540,44.350 37.400,44.350 C37.114,44.350 36.849,44.197 36.706,43.949 L35.906,42.563 C35.683,42.182 35.811,41.692 36.192,41.468 ZM40.314,39.182 L41.446,40.314 C41.758,40.627 41.758,41.133 41.445,41.446 C41.295,41.596 41.092,41.680 40.880,41.680 C40.668,41.680 40.464,41.595 40.314,41.446 L39.182,40.313 C38.875,39.995 38.884,39.489 39.202,39.182 C39.512,38.883 40.004,38.883 40.314,39.182 ZM34.121,12.980 L33.707,14.524 C33.613,14.874 33.297,15.117 32.935,15.117 C32.865,15.118 32.795,15.109 32.727,15.090 C32.301,14.976 32.048,14.538 32.162,14.111 L32.576,12.566 C32.679,12.136 33.111,11.871 33.540,11.974 C33.970,12.076 34.235,12.509 34.132,12.938 C34.129,12.952 34.125,12.966 34.121,12.980 ZM32.732,42.912 C33.157,42.800 33.592,43.052 33.707,43.475 L34.121,45.020 C34.235,45.446 33.982,45.885 33.555,46.000 C33.488,46.018 33.418,46.027 33.348,46.027 C32.986,46.027 32.670,45.783 32.576,45.434 L32.162,43.888 C32.049,43.461 32.305,43.024 32.732,42.912 ZM29.000,46.600 C28.558,46.600 28.200,46.242 28.200,45.800 L28.200,44.200 C28.200,43.758 28.558,43.400 29.000,43.400 C29.442,43.400 29.800,43.758 29.800,44.200 L29.800,45.800 C29.800,46.242 29.442,46.600 29.000,46.600 ZM29.000,14.600 C28.558,14.600 28.200,14.242 28.200,13.800 L28.200,12.200 C28.200,11.758 28.558,11.400 29.000,11.400 C29.442,11.400 29.800,11.758 29.800,12.200 L29.800,13.800 C29.800,14.242 29.442,14.600 29.000,14.600 ZM25.273,15.090 C25.206,15.109 25.135,15.118 25.065,15.117 C24.703,15.117 24.386,14.874 24.293,14.524 L23.880,12.980 C23.754,12.556 23.995,12.111 24.419,11.985 C24.842,11.859 25.288,12.100 25.414,12.524 C25.418,12.538 25.421,12.551 25.425,12.566 L25.839,14.111 C25.953,14.538 25.700,14.976 25.273,15.090 ZM24.293,43.475 C24.409,43.049 24.849,42.798 25.275,42.914 C25.698,43.029 25.950,43.464 25.838,43.888 L25.424,45.434 C25.330,45.783 25.014,46.027 24.652,46.027 C24.210,46.027 23.852,45.669 23.852,45.227 C23.852,45.157 23.861,45.088 23.879,45.020 L24.293,43.475 ZM21.799,16.529 C21.678,16.600 21.540,16.636 21.400,16.636 C21.114,16.637 20.849,16.484 20.706,16.237 L19.906,14.850 C19.683,14.469 19.811,13.979 20.192,13.755 C20.573,13.532 21.063,13.660 21.287,14.041 C21.288,14.044 21.290,14.047 21.292,14.050 L22.092,15.436 C22.313,15.819 22.182,16.308 21.799,16.529 ZM20.708,41.763 C20.931,41.382 21.421,41.254 21.803,41.477 C22.180,41.699 22.310,42.183 22.094,42.563 L21.294,43.949 C21.151,44.197 20.886,44.350 20.600,44.350 C20.158,44.349 19.800,43.990 19.801,43.548 C19.801,43.408 19.838,43.271 19.908,43.149 L20.708,41.763 ZM18.252,19.052 C18.040,19.052 17.836,18.968 17.686,18.817 L16.554,17.685 C16.237,17.378 16.228,16.872 16.535,16.554 C16.842,16.236 17.348,16.227 17.666,16.534 C17.673,16.541 17.679,16.548 17.685,16.554 L18.818,17.686 C19.130,17.999 19.130,18.505 18.817,18.817 C18.667,18.968 18.464,19.052 18.252,19.052 ZM17.686,39.182 C18.004,38.875 18.511,38.884 18.818,39.202 C19.117,39.512 19.117,40.003 18.818,40.313 L17.685,41.446 C17.536,41.595 17.332,41.680 17.120,41.680 C16.678,41.680 16.320,41.321 16.320,40.879 C16.320,40.668 16.404,40.464 16.554,40.314 L17.686,39.182 Z"/>
</g>
</svg>