<svg 
 xmlns="http://www.w3.org/2000/svg"
 xmlns:xlink="http://www.w3.org/1999/xlink"
 width="37px" height="54px">
<defs>
<filter filterUnits="userSpaceOnUse" id="Filter_0" x="0px" y="0px" width="37px" height="54px"  >
    <feOffset in="SourceAlpha" dx="0" dy="0" />
    <feGaussianBlur result="blurOut" stdDeviation="2.449" />
    <feFlood flood-color="rgb(187, 142, 255)" result="floodOut" />
    <feComposite operator="atop" in="floodOut" in2="blurOut" />
    <feComponentTransfer><feFuncA type="linear" slope="1"/></feComponentTransfer>
    <feMerge>
    <feMergeNode/>
    <feMergeNode in="SourceGraphic"/>
  </feMerge>
</filter>

</defs>
<g filter="url(#Filter_0)">
<path fill-rule="evenodd"  fill="rgb(195, 164, 252)"
 d="M29.319,20.150 L24.328,20.150 C23.887,20.150 23.529,19.792 23.529,19.350 C23.529,18.908 23.887,18.550 24.328,18.550 L29.319,18.550 C29.760,18.550 30.117,18.908 30.117,19.350 C30.117,19.792 29.760,20.150 29.319,20.150 ZM28.257,14.550 C28.698,14.550 29.055,14.908 29.055,15.350 C29.055,15.791 28.698,16.150 28.257,16.150 L25.326,16.150 C24.885,16.150 24.528,15.791 24.528,15.350 C24.528,14.908 24.885,14.550 25.326,14.550 L28.257,14.550 ZM29.319,12.150 L24.328,12.150 C23.887,12.150 23.529,11.791 23.529,11.350 C23.529,10.908 23.887,10.550 24.328,10.550 L29.319,10.550 C29.760,10.550 30.117,10.908 30.117,11.350 C30.117,11.791 29.760,12.150 29.319,12.150 ZM26.353,37.482 C26.364,43.252 21.703,47.939 15.943,47.949 L15.887,47.942 C12.333,47.935 9.027,46.115 7.115,43.113 C4.017,38.249 5.442,31.789 10.298,28.686 L10.298,10.678 C10.298,7.569 12.813,5.050 15.915,5.050 C19.018,5.050 21.533,7.569 21.533,10.678 L21.533,28.694 C24.529,30.609 26.346,33.921 26.353,37.482 ZM20.367,29.829 C20.119,29.686 19.967,29.421 19.968,29.134 L19.968,10.678 C19.968,8.453 18.168,6.649 15.947,6.649 C13.727,6.649 11.927,8.453 11.927,10.678 L11.927,29.134 C11.928,29.421 11.775,29.686 11.527,29.829 C10.184,30.607 9.068,31.725 8.292,33.071 C5.851,37.307 7.299,42.723 11.527,45.169 C15.755,47.614 21.162,46.163 23.603,41.927 C26.044,37.692 24.595,32.275 20.367,29.829 ZM15.943,42.750 C13.193,42.757 10.857,40.734 10.466,38.006 C10.033,34.984 12.128,32.183 15.145,31.750 L15.145,19.614 C15.145,19.172 15.502,18.814 15.943,18.814 C16.384,18.814 16.742,19.172 16.742,19.614 L16.742,31.750 C19.465,32.141 21.484,34.481 21.477,37.237 C21.468,40.290 18.991,42.758 15.943,42.750 ZM15.943,33.286 C13.780,33.290 12.027,35.046 12.022,37.214 C12.022,39.383 13.778,41.142 15.943,41.142 C18.109,41.142 19.864,39.383 19.864,37.214 C19.864,35.044 18.109,33.286 15.943,33.286 ZM25.326,24.150 C24.885,24.150 24.528,23.791 24.528,23.350 C24.528,22.908 24.885,22.549 25.326,22.549 L28.257,22.549 C28.698,22.549 29.055,22.908 29.055,23.350 C29.055,23.791 28.698,24.150 28.257,24.150 L25.326,24.150 ZM23.529,27.350 C23.529,26.908 23.887,26.550 24.328,26.550 L29.319,26.550 C29.760,26.550 30.117,26.908 30.117,27.350 C30.117,27.791 29.760,28.150 29.319,28.150 L24.328,28.150 C23.887,28.150 23.529,27.791 23.529,27.350 Z"/>
</g>
</svg>