<svg 
 xmlns="http://www.w3.org/2000/svg"
 xmlns:xlink="http://www.w3.org/1999/xlink"
 width="48px" height="48px">
<defs>
<filter filterUnits="userSpaceOnUse" id="Filter_0" x="0px" y="0px" width="48px" height="48px"  >
    <feOffset in="SourceAlpha" dx="0" dy="0" />
    <feGaussianBlur result="blurOut" stdDeviation="2.449" />
    <feFlood flood-color="rgb(187, 142, 255)" result="floodOut" />
    <feComposite operator="atop" in="floodOut" in2="blurOut" />
    <feComponentTransfer><feFuncA type="linear" slope="1"/></feComponentTransfer>
    <feMerge>
    <feMergeNode/>
    <feMergeNode in="SourceGraphic"/>
  </feMerge>
</filter>

</defs>
<g filter="url(#Filter_0)">
<path fill-rule="evenodd"  fill="rgb(195, 164, 252)"
 d="M41.478,41.302 C41.128,41.652 40.560,41.654 40.208,41.305 L32.746,33.841 C26.164,39.725 16.084,39.254 10.079,32.783 C4.074,26.313 4.354,16.224 10.710,10.097 C17.065,3.969 27.156,4.060 33.401,10.300 C39.506,16.406 39.711,26.212 34.019,32.568 L41.481,40.031 C41.830,40.384 41.829,40.951 41.478,41.302 ZM32.127,11.573 L32.032,11.478 C26.380,5.878 17.259,5.921 11.659,11.573 C6.060,17.226 6.103,26.349 11.754,31.949 C17.371,37.567 26.510,37.567 32.127,31.949 C37.744,26.332 37.744,17.191 32.127,11.573 ZM27.342,22.660 L22.839,22.660 L22.839,27.164 C22.839,27.661 22.436,28.064 21.939,28.064 C21.442,28.064 21.039,27.661 21.039,27.164 L21.039,22.660 L16.539,22.660 C16.042,22.660 15.639,22.257 15.639,21.760 C15.639,21.263 16.042,20.859 16.539,20.859 L21.039,20.859 L21.039,16.359 C21.039,15.862 21.442,15.459 21.939,15.459 C22.436,15.459 22.839,15.862 22.839,16.359 L22.839,20.859 L27.342,20.859 C27.840,20.859 28.243,21.263 28.243,21.760 C28.243,22.257 27.840,22.660 27.342,22.660 Z"/>
</g>
</svg>