<svg 
 xmlns="http://www.w3.org/2000/svg"
 xmlns:xlink="http://www.w3.org/1999/xlink"
 width="47px" height="39px">
<defs>
<filter filterUnits="userSpaceOnUse" id="Filter_0" x="0px" y="0px" width="47px" height="39px"  >
    <feOffset in="SourceAlpha" dx="0" dy="0" />
    <feGaussianBlur result="blurOut" stdDeviation="2.449" />
    <feFlood flood-color="rgb(187, 142, 255)" result="floodOut" />
    <feComposite operator="atop" in="floodOut" in2="blurOut" />
    <feComponentTransfer><feFuncA type="linear" slope="1"/></feComponentTransfer>
    <feMerge>
    <feMergeNode/>
    <feMergeNode in="SourceGraphic"/>
  </feMerge>
</filter>

</defs>
<g filter="url(#Filter_0)">
<path fill-rule="evenodd"  fill="rgb(195, 164, 252)"
 d="M38.552,20.640 L7.448,20.640 C6.494,20.640 5.720,19.866 5.720,18.911 L5.720,7.381 C5.720,6.426 6.494,5.652 7.448,5.652 L38.552,5.652 C39.506,5.652 40.280,6.426 40.280,7.381 L40.280,18.911 C40.280,19.866 39.506,20.640 38.552,20.640 ZM9.752,19.487 L36.248,19.487 L36.248,18.334 L9.752,18.334 L9.752,19.487 ZM9.752,17.181 L36.248,17.181 L36.248,16.028 L9.752,16.028 L9.752,17.181 ZM39.128,7.381 C39.128,7.063 38.870,6.805 38.552,6.805 L7.448,6.805 C7.130,6.805 6.872,7.063 6.872,7.381 L6.872,18.911 C6.872,19.229 7.130,19.487 7.448,19.487 L8.600,19.487 L8.600,14.875 L37.400,14.875 L37.400,19.487 L38.552,19.487 C38.870,19.487 39.128,19.229 39.128,18.911 L39.128,7.381 ZM36.824,7.958 L37.976,7.958 L37.976,9.111 L36.824,9.111 L36.824,7.958 ZM34.520,7.958 L35.672,7.958 L35.672,9.111 L34.520,9.111 L34.520,7.958 ZM17.240,9.687 L28.760,9.687 L28.760,10.840 L17.240,10.840 L17.240,9.687 ZM7.736,31.069 C9.771,29.041 10.912,26.282 10.904,23.408 L10.904,22.370 C10.904,22.051 11.162,21.793 11.480,21.793 C11.798,21.793 12.056,22.051 12.056,22.370 L12.056,23.408 C12.065,26.588 10.803,29.641 8.550,31.884 L7.859,32.576 C7.714,32.726 7.500,32.786 7.299,32.733 C7.098,32.681 6.940,32.524 6.888,32.321 C6.835,32.120 6.895,31.906 7.044,31.761 L7.736,31.069 ZM16.664,25.211 L16.664,23.523 C16.664,23.204 16.922,22.946 17.240,22.946 C17.558,22.946 17.816,23.204 17.816,23.523 L17.816,25.211 C17.823,27.975 16.725,30.628 14.767,32.577 C14.622,32.727 14.408,32.787 14.207,32.735 C14.005,32.681 13.848,32.524 13.796,32.323 C13.743,32.121 13.803,31.907 13.953,31.762 C15.694,30.029 16.671,27.670 16.664,25.211 ZM22.424,22.370 C22.742,22.370 23.000,22.628 23.000,22.946 L23.000,32.170 C23.000,32.488 22.742,32.746 22.424,32.746 C22.106,32.746 21.848,32.488 21.848,32.170 L21.848,22.946 C21.848,22.628 22.106,22.370 22.424,22.370 ZM28.760,22.946 C29.078,22.946 29.336,23.204 29.336,23.523 L29.336,25.211 C29.329,27.670 30.305,30.029 32.047,31.762 C32.265,31.988 32.262,32.348 32.040,32.570 C31.818,32.792 31.459,32.796 31.233,32.577 C29.274,30.628 28.176,27.975 28.184,25.211 L28.184,23.523 C28.184,23.204 28.442,22.946 28.760,22.946 ZM34.520,21.793 C34.838,21.793 35.096,22.051 35.096,22.370 L35.096,23.408 C35.088,26.282 36.230,29.042 38.267,31.069 L38.958,31.761 C39.176,31.987 39.173,32.347 38.951,32.569 C38.729,32.792 38.370,32.795 38.143,32.576 L37.452,31.884 C35.198,29.641 33.935,26.589 33.944,23.408 L33.944,22.370 C33.944,22.051 34.202,21.793 34.520,21.793 Z"/>
</g>
</svg>