<svg 
 xmlns="http://www.w3.org/2000/svg"
 xmlns:xlink="http://www.w3.org/1999/xlink"
 width="55px" height="49px">
<defs>
<filter filterUnits="userSpaceOnUse" id="Filter_0" x="0px" y="0px" width="55px" height="49px"  >
    <feOffset in="SourceAlpha" dx="0" dy="0" />
    <feGaussianBlur result="blurOut" stdDeviation="2.449" />
    <feFlood flood-color="rgb(187, 142, 255)" result="floodOut" />
    <feComposite operator="atop" in="floodOut" in2="blurOut" />
    <feComponentTransfer><feFuncA type="linear" slope="1"/></feComponentTransfer>
    <feMerge>
    <feMergeNode/>
    <feMergeNode in="SourceGraphic"/>
  </feMerge>
</filter>

</defs>
<g filter="url(#Filter_0)">
<path fill-rule="evenodd"  fill="rgb(195, 164, 252)"
 d="M43.500,42.700 L10.500,42.700 C7.909,42.700 5.800,40.592 5.800,38.001 L5.800,9.999 C5.800,7.408 7.909,5.300 10.500,5.300 L43.500,5.300 C46.091,5.300 48.200,7.408 48.200,9.999 L48.200,38.001 C48.200,40.592 46.091,42.700 43.500,42.700 ZM46.800,9.999 C46.800,8.180 45.319,6.699 43.500,6.699 L10.500,6.699 C8.680,6.699 7.200,8.180 7.200,9.999 L7.200,15.107 L46.800,15.107 L46.800,9.999 ZM46.800,16.506 L7.200,16.506 L7.200,38.001 C7.200,39.820 8.680,41.300 10.500,41.300 L43.500,41.300 C45.319,41.300 46.800,39.820 46.800,38.001 L46.800,16.506 ZM31.924,32.340 C31.793,32.452 31.631,32.507 31.471,32.507 C31.273,32.507 31.076,32.423 30.938,32.260 C30.687,31.967 30.723,31.524 31.017,31.274 L34.920,27.951 L31.017,24.627 C30.723,24.377 30.687,23.935 30.938,23.641 C31.188,23.347 31.630,23.311 31.924,23.561 L36.454,27.418 C36.610,27.551 36.700,27.745 36.700,27.951 C36.700,28.156 36.610,28.350 36.454,28.483 L31.924,32.340 ZM26.080,34.843 C26.011,35.173 25.720,35.399 25.396,35.399 C25.348,35.399 25.300,35.394 25.251,35.384 C24.873,35.304 24.631,34.933 24.710,34.555 L27.534,21.154 C27.613,20.776 27.984,20.534 28.363,20.614 C28.741,20.693 28.983,21.065 28.903,21.443 L26.080,34.843 ZM23.062,32.260 C22.924,32.423 22.727,32.507 22.529,32.507 C22.369,32.507 22.207,32.452 22.076,32.340 L17.546,28.483 C17.390,28.350 17.300,28.156 17.300,27.951 C17.300,27.745 17.390,27.551 17.546,27.418 L22.076,23.561 C22.370,23.311 22.812,23.347 23.062,23.641 C23.313,23.935 23.278,24.377 22.983,24.627 L19.080,27.951 L22.983,31.274 C23.278,31.524 23.313,31.967 23.062,32.260 ZM10.954,8.706 C12.175,8.706 13.169,9.700 13.169,10.921 C13.169,12.142 12.175,13.136 10.954,13.136 C9.732,13.136 8.739,12.142 8.739,10.921 C8.739,9.700 9.732,8.706 10.954,8.706 ZM10.954,11.736 C11.403,11.736 11.769,11.371 11.769,10.921 C11.769,10.472 11.403,10.106 10.954,10.106 C10.505,10.106 10.139,10.472 10.139,10.921 C10.139,11.371 10.505,11.736 10.954,11.736 ZM17.760,8.728 C18.981,8.728 19.975,9.721 19.975,10.943 C19.975,12.163 18.981,13.157 17.760,13.157 C16.539,13.157 15.545,12.163 15.545,10.943 C15.545,9.721 16.539,8.728 17.760,8.728 ZM17.760,11.758 C18.210,11.758 18.575,11.392 18.575,10.943 C18.575,10.493 18.210,10.127 17.760,10.127 C17.311,10.127 16.945,10.493 16.945,10.943 C16.945,11.392 17.311,11.758 17.760,11.758 ZM24.566,8.749 C25.788,8.749 26.782,9.743 26.782,10.964 C26.782,12.185 25.788,13.178 24.566,13.178 C23.345,13.178 22.352,12.185 22.352,10.964 C22.352,9.743 23.345,8.749 24.566,8.749 ZM24.566,11.779 C25.016,11.779 25.381,11.413 25.381,10.964 C25.381,10.514 25.016,10.149 24.566,10.149 C24.117,10.149 23.752,10.514 23.752,10.964 C23.752,11.413 24.117,11.779 24.566,11.779 Z"/>
</g>
</svg>