<svg 
 xmlns="http://www.w3.org/2000/svg"
 xmlns:xlink="http://www.w3.org/1999/xlink"
 width="46px" height="58px">
<defs>
<filter filterUnits="userSpaceOnUse" id="Filter_0" x="0px" y="0px" width="46px" height="58px"  >
    <feOffset in="SourceAlpha" dx="0" dy="0" />
    <feGaussianBlur result="blurOut" stdDeviation="2.449" />
    <feFlood flood-color="rgb(187, 142, 255)" result="floodOut" />
    <feComposite operator="atop" in="floodOut" in2="blurOut" />
    <feComponentTransfer><feFuncA type="linear" slope="1"/></feComponentTransfer>
    <feMerge>
    <feMergeNode/>
    <feMergeNode in="SourceGraphic"/>
  </feMerge>
</filter>

</defs>
<g filter="url(#Filter_0)">
<path fill-rule="evenodd"  fill="rgb(195, 164, 252)"
 d="M35.568,27.060 C35.549,27.060 35.529,27.059 35.510,27.059 L35.510,27.059 C34.664,27.067 33.848,27.379 33.213,27.939 C32.750,26.409 31.354,25.351 29.755,25.316 C28.960,25.328 28.192,25.610 27.578,26.116 C27.263,24.389 25.788,23.115 24.032,23.053 C23.283,23.054 22.554,23.295 21.951,23.741 L21.951,21.805 C26.309,19.650 28.093,14.373 25.936,10.019 C23.779,5.665 18.497,3.882 14.139,6.038 C9.781,8.193 7.998,13.470 10.155,17.824 C11.011,19.552 12.411,20.950 14.139,21.805 L14.139,30.258 L12.315,27.803 C11.050,26.135 8.674,25.802 7.000,27.059 C5.435,28.398 5.222,30.739 6.520,32.337 L13.571,46.188 C15.788,50.547 19.326,51.154 20.775,51.211 C22.023,51.266 23.304,51.283 24.529,51.283 C28.387,51.283 31.732,51.083 31.732,51.083 L31.812,51.083 C37.599,51.083 39.216,44.869 39.264,41.558 L39.264,30.962 C39.322,28.865 37.667,27.118 35.568,27.060 ZM14.107,16.102 C14.107,16.102 14.107,16.103 14.107,16.103 L14.107,19.926 C12.065,18.602 10.831,16.336 10.826,13.904 C10.806,9.929 14.015,6.690 17.993,6.671 C21.972,6.651 25.213,9.857 25.233,13.832 C25.245,16.296 23.995,18.595 21.919,19.926 L21.919,16.103 C21.920,13.948 20.171,12.200 18.014,12.200 C15.857,12.200 14.108,13.947 14.107,16.102 ZM31.604,49.483 C31.548,49.483 25.897,49.835 20.799,49.611 C19.662,49.563 16.797,49.059 14.988,45.461 L7.912,31.538 C7.888,31.489 7.858,31.444 7.824,31.402 C7.028,30.491 7.117,29.108 8.024,28.307 C8.997,27.608 10.351,27.818 11.066,28.779 L14.267,33.185 L14.316,33.225 C14.386,33.300 14.467,33.365 14.556,33.417 L14.692,33.465 L14.852,33.465 L14.908,33.465 L14.996,33.465 L15.156,33.465 L15.300,33.401 L15.380,33.401 L15.420,33.361 C15.462,33.325 15.500,33.285 15.532,33.241 C15.563,33.204 15.589,33.164 15.612,33.121 C15.632,33.077 15.648,33.032 15.660,32.985 C15.665,32.932 15.665,32.879 15.660,32.825 C15.660,32.825 15.660,32.825 15.660,32.769 L15.660,16.103 C15.660,14.831 16.692,13.800 17.965,13.800 C19.239,13.800 20.271,14.831 20.271,16.103 L20.271,30.258 C20.271,30.700 20.629,31.058 21.071,31.058 C21.513,31.058 21.871,30.700 21.871,30.258 L21.871,26.955 C21.748,25.809 22.578,24.780 23.725,24.657 C24.872,24.533 25.902,25.362 26.025,26.509 C26.041,26.657 26.041,26.807 26.025,26.955 L26.025,32.705 C26.025,33.147 26.384,33.505 26.826,33.505 C27.268,33.505 27.626,33.147 27.626,32.705 L27.626,29.219 C27.503,28.072 28.332,27.043 29.480,26.920 C30.627,26.797 31.657,27.626 31.780,28.772 C31.796,28.920 31.796,29.070 31.780,29.219 L31.780,35.616 C31.780,36.058 32.139,36.416 32.581,36.416 C33.023,36.416 33.381,36.058 33.381,35.616 L33.381,30.962 C33.258,29.816 34.087,28.787 35.235,28.663 C36.382,28.540 37.412,29.369 37.535,30.515 C37.551,30.664 37.551,30.814 37.535,30.962 L37.583,41.542 C37.583,41.870 37.391,49.539 31.604,49.483 Z"/>
</g>
</svg>