<svg 
 xmlns="http://www.w3.org/2000/svg"
 xmlns:xlink="http://www.w3.org/1999/xlink"
 width="72px" height="24px">
<path fill-rule="evenodd"  fill="rgb(157, 124, 206)"
 d="M70.962,4.186 C70.810,4.493 70.605,4.748 70.401,5.004 C70.147,5.260 69.892,5.413 69.585,5.566 C69.279,5.669 68.923,5.771 68.617,5.771 C68.260,5.771 67.955,5.669 67.648,5.566 C67.343,5.413 67.037,5.260 66.832,5.004 C66.577,4.748 66.373,4.493 66.272,4.186 C66.119,3.880 66.069,3.522 66.069,3.165 C66.069,2.909 66.119,2.602 66.221,2.347 C66.323,2.040 66.475,1.785 66.628,1.580 C66.883,1.274 67.189,1.018 67.546,0.865 C67.852,0.711 68.209,0.609 68.617,0.609 C68.872,0.609 69.177,0.660 69.433,0.763 C69.738,0.865 69.994,1.018 70.197,1.171 C70.503,1.427 70.707,1.734 70.911,2.091 C71.064,2.449 71.166,2.806 71.166,3.165 C71.166,3.522 71.064,3.828 70.962,4.186 ZM70.197,1.529 C69.789,1.120 69.229,0.865 68.617,0.865 C68.005,0.865 67.445,1.120 66.986,1.529 C66.577,1.989 66.323,2.551 66.323,3.165 C66.323,3.828 66.577,4.391 66.986,4.800 C67.445,5.260 68.005,5.515 68.617,5.515 C69.229,5.515 69.789,5.260 70.197,4.800 C70.656,4.340 70.860,3.828 70.860,3.165 C70.860,2.551 70.656,1.989 70.197,1.529 ZM69.229,3.317 C69.483,3.420 69.687,3.522 69.789,3.726 C69.892,3.880 69.943,4.135 69.943,4.493 L69.943,4.646 L69.381,4.646 C69.381,4.237 69.331,3.982 69.177,3.778 C69.076,3.624 68.872,3.522 68.565,3.522 L68.056,3.522 L68.056,4.646 L67.495,4.646 L67.495,1.632 L68.719,1.632 C69.177,1.632 69.483,1.734 69.687,1.887 C69.892,2.040 69.994,2.245 69.994,2.500 C69.994,2.705 69.943,2.909 69.789,3.011 C69.687,3.165 69.483,3.267 69.229,3.317 ZM69.229,2.245 C69.076,2.142 68.872,2.142 68.617,2.142 L68.056,2.142 L68.056,3.062 L68.565,3.062 C68.820,3.062 69.076,3.011 69.177,2.960 C69.331,2.857 69.433,2.705 69.433,2.551 C69.433,2.397 69.331,2.296 69.229,2.245 ZM66.069,23.835 L47.336,23.835 L47.336,3.190 L53.166,3.190 L53.166,19.161 L66.069,19.161 L66.069,23.835 ZM41.818,21.576 C41.042,22.433 40.186,22.978 39.252,23.212 C38.010,23.601 36.844,23.835 35.833,23.835 L23.786,23.835 L23.786,3.190 L35.833,3.190 C37.543,3.190 38.864,3.423 39.875,3.969 C40.964,4.436 41.818,5.216 42.440,6.150 C43.139,7.085 43.605,8.176 43.917,9.422 C44.229,10.669 44.383,11.993 44.383,13.396 C44.383,15.655 44.150,17.369 43.682,18.537 C43.217,19.784 42.595,20.797 41.818,21.576 ZM37.543,9.111 C36.921,8.254 35.833,7.864 34.357,7.864 L29.693,7.864 L29.693,19.161 L34.357,19.161 C35.522,19.161 36.378,19.005 36.844,18.694 C37.388,18.381 37.776,17.836 38.088,17.136 C38.321,16.434 38.476,15.188 38.476,13.551 C38.476,11.370 38.165,9.890 37.543,9.111 ZM15.003,14.954 L6.143,14.954 L6.143,23.835 L0.390,23.835 L0.390,3.190 L6.143,3.190 L6.143,10.435 L15.003,10.435 L15.003,3.190 L20.833,3.190 L20.833,23.835 L15.003,23.835 L15.003,14.954 Z"/>
</svg>