<svg 
 xmlns="http://www.w3.org/2000/svg"
 xmlns:xlink="http://www.w3.org/1999/xlink"
 width="64px" height="31px">
<path fill-rule="evenodd"  fill="rgb(181, 168, 198)"
 d="M63.100,30.086 C61.134,30.086 59.293,30.086 57.417,30.086 C55.774,28.132 54.116,26.160 52.420,24.142 C50.555,26.057 48.750,27.902 46.958,29.760 C46.720,30.006 46.486,30.122 46.137,30.116 C44.757,30.097 43.377,30.108 41.831,30.108 C44.681,27.194 47.439,24.375 50.226,21.525 C48.009,18.879 45.820,16.267 43.577,13.589 C45.458,13.589 47.260,13.589 49.142,13.589 C50.481,15.148 51.867,16.760 53.345,18.479 C53.594,18.186 53.794,17.920 54.025,17.686 C55.277,16.417 56.543,15.161 57.789,13.886 C58.031,13.638 58.276,13.543 58.619,13.548 C59.996,13.566 61.373,13.555 62.881,13.555 C60.330,16.056 57.867,18.472 55.380,20.910 C58.012,24.039 60.522,27.023 63.100,30.086 ZM58.498,12.606 C58.254,12.601 57.975,12.501 57.778,12.356 C52.394,8.386 46.419,5.784 39.848,4.550 C37.256,4.063 34.634,3.891 32.002,3.822 C30.425,3.915 28.842,3.955 27.272,4.113 C21.692,4.671 16.409,6.266 11.485,8.944 C9.575,9.982 7.792,11.252 5.949,12.413 C5.813,12.499 5.659,12.617 5.513,12.619 C4.020,12.634 2.527,12.628 1.034,12.628 C0.989,12.571 0.944,12.614 0.900,12.557 C1.029,12.491 1.177,12.347 1.284,12.255 C7.219,7.124 14.014,3.699 21.660,1.964 C24.901,1.228 28.185,0.851 31.508,0.823 C31.674,0.821 31.840,0.836 32.006,0.843 C34.344,1.010 36.703,1.030 39.015,1.371 C47.873,2.678 55.662,6.363 62.433,12.216 C62.545,12.312 62.650,12.417 62.813,12.568 C62.647,12.590 62.546,12.615 62.444,12.615 C61.129,12.618 59.813,12.629 58.498,12.606 ZM5.642,20.488 C7.983,18.106 10.228,15.822 12.453,13.559 C14.049,13.559 15.608,13.559 17.295,13.559 C15.022,15.870 12.823,18.106 10.566,20.399 C13.275,23.609 15.974,26.806 18.734,30.076 C16.786,30.076 14.946,30.076 13.039,30.076 C11.235,27.931 9.393,25.742 7.516,23.511 C6.904,24.126 6.312,24.704 5.748,25.305 C5.654,25.404 5.652,25.613 5.651,25.771 C5.643,27.021 5.647,28.272 5.647,29.522 C5.647,29.700 5.647,29.878 5.647,30.082 C4.044,30.082 2.501,30.082 0.913,30.082 C0.913,24.593 0.913,19.105 0.913,13.586 C2.479,13.586 4.019,13.586 5.642,13.586 C5.642,15.858 5.642,18.099 5.642,20.488 ZM34.367,23.713 C34.400,23.702 34.433,23.690 34.466,23.678 C34.466,20.325 34.466,16.972 34.466,13.582 C36.023,13.582 37.564,13.582 39.157,13.582 C39.157,19.070 39.157,24.555 39.157,30.081 C37.359,30.081 35.569,30.081 33.724,30.081 C31.250,26.737 28.751,23.359 26.252,19.980 C26.220,19.992 26.187,20.005 26.155,20.017 C26.155,23.356 26.155,26.694 26.155,30.078 C24.573,30.078 23.037,30.078 21.455,30.078 C21.455,24.594 21.455,19.106 21.455,13.578 C23.341,13.578 25.231,13.578 27.182,13.578 C29.559,16.931 31.963,20.322 34.367,23.713 Z"/>
</svg>