<?xml version="1.0"?>
<svg width="142" height="47" xmlns="http://www.w3.org/2000/svg" xmlns:svg="http://www.w3.org/2000/svg">
 <g class="layer">
  <title>Layer 1</title>
  <path d="m142.060667,6.654c-0.305,0.614 -0.715,1.124 -1.123,1.635c-0.509,0.511 -1.018,0.818 -1.632,1.124c-0.612,0.206 -1.324,0.41 -1.936,0.41c-0.713,0 -1.325,-0.204 -1.938,-0.41c-0.611,-0.306 -1.222,-0.613 -1.632,-1.124c-0.509,-0.511 -0.917,-1.021 -1.121,-1.635c-0.305,-0.614 -0.406,-1.329 -0.406,-2.043c0,-0.512 0.101,-1.125 0.305,-1.636c0.204,-0.613 0.509,-1.124 0.814,-1.533c0.511,-0.613 1.123,-1.125 1.836,-1.431c0.611,-0.307 1.326,-0.511 2.142,-0.511c0.51,0 1.121,0.102 1.632,0.307c0.61,0.204 1.122,0.51 1.528,0.817c0.612,0.511 1.02,1.124 1.428,1.84c0.307,0.716 0.51,1.43 0.51,2.147c0,0.714 -0.203,1.327 -0.407,2.043zm-1.531,-5.314c-0.816,-0.818 -1.936,-1.329 -3.16,-1.329c-1.224,0 -2.345,0.511 -3.262,1.329c-0.817,0.919 -1.326,2.043 -1.326,3.271c0,1.327 0.509,2.452 1.326,3.27c0.917,0.919 2.038,1.431 3.262,1.431c1.224,0 2.344,-0.512 3.16,-1.431c0.917,-0.92 1.327,-1.943 1.327,-3.27c0,-1.228 -0.41,-2.352 -1.327,-3.271zm-1.936,3.576c0.508,0.205 0.916,0.409 1.12,0.818c0.206,0.306 0.307,0.818 0.307,1.534l0,0.306l-1.122,0c0,-0.818 -0.101,-1.328 -0.408,-1.738c-0.203,-0.306 -0.611,-0.511 -1.224,-0.511l-1.018,0l0,2.249l-1.123,0l0,-6.03l2.448,0c0.917,0 1.528,0.204 1.936,0.511c0.41,0.307 0.614,0.716 0.614,1.227c0,0.408 -0.103,0.817 -0.41,1.021c-0.204,0.308 -0.612,0.511 -1.12,0.613zm0,-2.145c-0.306,-0.206 -0.714,-0.206 -1.224,-0.206l-1.121,0l0,1.84l1.018,0c0.509,0 1.021,-0.102 1.224,-0.203c0.307,-0.206 0.511,-0.512 0.511,-0.819c0,-0.307 -0.204,-0.51 -0.408,-0.612zm-6.321,43.181l-37.464,0l0,-41.291l11.658,0l0,31.942l25.806,0l0,9.349zm-48.501,-4.519c-1.552,1.714 -3.264,2.805 -5.132,3.272c-2.485,0.779 -4.815,1.247 -6.838,1.247l-24.093,0l0,-41.291l24.093,0c3.42,0 6.062,0.467 8.085,1.558c2.176,0.935 3.885,2.494 5.129,4.362c1.398,1.871 2.33,4.052 2.955,6.545c0.622,2.494 0.93,5.142 0.93,7.946c0,4.519 -0.465,7.946 -1.401,10.284c-0.93,2.493 -2.173,4.52 -3.728,6.077zm-8.55,-24.93c-1.243,-1.714 -3.42,-2.493 -6.372,-2.493l-9.328,0l0,22.593l9.328,0c2.331,0 4.042,-0.312 4.975,-0.935c1.087,-0.624 1.863,-1.715 2.487,-3.116c0.465,-1.402 0.776,-3.895 0.776,-7.168c0,-4.364 -0.622,-7.323 -1.866,-8.881zm-45.08,11.686l-17.721,0l0,17.763l-11.504,0l0,-41.291l11.504,0l0,14.491l17.721,0l0,-14.491l11.659,0l0,41.291l-11.659,0l0,-17.763z" fill="#ffffff" fill-rule="evenodd" id="svg_1" stroke-width="0"/>
 </g>
</svg>