<svg 
 xmlns="http://www.w3.org/2000/svg"
 xmlns:xlink="http://www.w3.org/1999/xlink"
 width="142px" height="47px">
<path fill-rule="evenodd"  fill="rgb(150, 115, 202)"
 d="M141.144,7.154 C140.839,7.768 140.429,8.278 140.021,8.789 C139.512,9.300 139.003,9.607 138.389,9.913 C137.777,10.119 137.065,10.323 136.453,10.323 C135.740,10.323 135.128,10.119 134.515,9.913 C133.904,9.607 133.293,9.300 132.883,8.789 C132.374,8.278 131.966,7.768 131.762,7.154 C131.457,6.540 131.356,5.825 131.356,5.111 C131.356,4.599 131.457,3.986 131.661,3.475 C131.865,2.862 132.170,2.351 132.475,1.942 C132.986,1.329 133.598,0.817 134.311,0.511 C134.922,0.204 135.637,-0.000 136.453,-0.000 C136.963,-0.000 137.574,0.102 138.085,0.307 C138.695,0.511 139.207,0.817 139.613,1.124 C140.225,1.635 140.633,2.248 141.041,2.964 C141.348,3.680 141.551,4.394 141.551,5.111 C141.551,5.825 141.348,6.438 141.144,7.154 ZM139.613,1.840 C138.797,1.022 137.677,0.511 136.453,0.511 C135.229,0.511 134.108,1.022 133.191,1.840 C132.374,2.759 131.865,3.883 131.865,5.111 C131.865,6.438 132.374,7.563 133.191,8.381 C134.108,9.300 135.229,9.812 136.453,9.812 C137.677,9.812 138.797,9.300 139.613,8.381 C140.530,7.461 140.940,6.438 140.940,5.111 C140.940,3.883 140.530,2.759 139.613,1.840 ZM137.677,5.416 C138.185,5.621 138.593,5.825 138.797,6.234 C139.003,6.540 139.104,7.052 139.104,7.768 L139.104,8.074 L137.982,8.074 C137.982,7.256 137.881,6.746 137.574,6.336 C137.371,6.030 136.963,5.825 136.350,5.825 L135.332,5.825 L135.332,8.074 L134.209,8.074 L134.209,2.044 L136.657,2.044 C137.574,2.044 138.185,2.248 138.593,2.555 C139.003,2.862 139.207,3.271 139.207,3.782 C139.207,4.190 139.104,4.599 138.797,4.803 C138.593,5.111 138.185,5.314 137.677,5.416 ZM137.677,3.271 C137.371,3.065 136.963,3.065 136.453,3.065 L135.332,3.065 L135.332,4.905 L136.350,4.905 C136.859,4.905 137.371,4.803 137.574,4.702 C137.881,4.496 138.085,4.190 138.085,3.883 C138.085,3.576 137.881,3.373 137.677,3.271 ZM131.356,46.452 L93.892,46.452 L93.892,5.161 L105.550,5.161 L105.550,37.103 L131.356,37.103 L131.356,46.452 ZM82.855,41.933 C81.303,43.647 79.591,44.738 77.723,45.205 C75.238,45.984 72.908,46.452 70.885,46.452 L46.792,46.452 L46.792,5.161 L70.885,5.161 C74.305,5.161 76.947,5.628 78.970,6.719 C81.146,7.654 82.855,9.213 84.099,11.081 C85.497,12.952 86.429,15.133 87.054,17.626 C87.676,20.120 87.984,22.768 87.984,25.572 C87.984,30.091 87.519,33.518 86.583,35.856 C85.653,38.349 84.410,40.376 82.855,41.933 ZM74.305,17.003 C73.062,15.289 70.885,14.510 67.933,14.510 L58.605,14.510 L58.605,37.103 L67.933,37.103 C70.264,37.103 71.975,36.791 72.908,36.168 C73.995,35.544 74.771,34.453 75.395,33.052 C75.860,31.650 76.171,29.157 76.171,25.884 C76.171,21.520 75.549,18.561 74.305,17.003 ZM29.225,28.689 L11.504,28.689 L11.504,46.452 L-0.000,46.452 L-0.000,5.161 L11.504,5.161 L11.504,19.652 L29.225,19.652 L29.225,5.161 L40.884,5.161 L40.884,46.452 L29.225,46.452 L29.225,28.689 Z"/>
</svg>