<svg width="142" height="47" xmlns="http://www.w3.org/2000/svg">

 <g>
  <title>background</title>
  <rect fill="none" id="canvas_background" height="49" width="144" y="-1" x="-1"/>
 </g>
 <g class="layer">
  <title>Layer 1</title>
  <path stroke-width="0" id="svg_1" fill-rule="evenodd" fill="#ffffff" d="m141.35231,7.487333c-0.304993,0.614001 -0.714996,1.124002 -1.123001,1.635002c-0.509003,0.511001 -1.018005,0.818001 -1.632004,1.124001c-0.612,0.206 -1.32399,0.41 -1.935989,0.41c-0.712997,0 -1.325012,-0.204 -1.938004,-0.41c-0.611008,-0.306 -1.222,-0.613 -1.632004,-1.124001c-0.509003,-0.511 -0.916992,-1.021001 -1.121002,-1.635002c-0.304993,-0.614 -0.405991,-1.329 -0.405991,-2.043c0,-0.512001 0.100998,-1.125 0.304993,-1.636c0.20401,-0.613 0.509003,-1.124 0.813995,-1.533c0.511002,-0.613001 1.123001,-1.125 1.836014,-1.431c0.610992,-0.307001 1.325989,-0.511 2.141998,-0.511c0.509995,0 1.121002,0.102 1.631989,0.307c0.610001,0.204 1.122009,0.51 1.528,0.817c0.612,0.511 1.020004,1.124 1.428009,1.84c0.306992,0.716 0.509995,1.429999 0.509995,2.146999c0,0.713999 -0.203003,1.327 -0.406998,2.043zm-1.531006,-5.313999c-0.815994,-0.818 -1.935989,-1.329 -3.159988,-1.329c-1.223999,0 -2.345001,0.511 -3.262009,1.329c-0.817001,0.919 -1.325989,2.042999 -1.325989,3.270999c0,1.327 0.508987,2.452 1.325989,3.270001c0.917007,0.919001 2.03801,1.431001 3.262009,1.431001c1.223999,0 2.343994,-0.512 3.159988,-1.431001c0.917007,-0.920002 1.327011,-1.943002 1.327011,-3.270001c0,-1.228 -0.410004,-2.352 -1.327011,-3.270999zm-1.935989,3.575999c0.507996,0.205 0.916,0.409 1.119995,0.818c0.205994,0.306 0.307007,0.818 0.307007,1.534001l0,0.306l-1.122009,0c0,-0.818001 -0.100998,-1.328001 -0.40799,-1.738001c-0.203003,-0.306 -0.611008,-0.511 -1.224014,-0.511l-1.01799,0l0,2.249001l-1.123001,0l0,-6.03l2.447998,0c0.917007,0 1.528,0.204 1.936005,0.511c0.409988,0.307 0.613998,0.716 0.613998,1.227c0,0.408 -0.102997,0.816999 -0.410004,1.021c-0.203995,0.308 -0.612,0.511 -1.119995,0.612999zm0,-2.144999c-0.306,-0.205999 -0.714005,-0.205999 -1.223999,-0.205999l-1.121002,0l0,1.839999l1.01799,0c0.509003,0 1.021011,-0.102 1.224014,-0.203c0.306992,-0.206 0.510986,-0.512 0.510986,-0.819c0,-0.306999 -0.203995,-0.509999 -0.40799,-0.612zm-6.320999,43.181006l-37.463966,0l0,-41.291007l11.657997,0l0,31.942008l25.805969,0l0,9.348999zm-48.500969,-4.519001c-1.551994,1.714001 -3.264,2.805 -5.131996,3.272003c-2.485001,0.778999 -4.815002,1.246998 -6.838005,1.246998l-24.093014,0l0,-41.291007l24.093014,0c3.420006,0 6.062004,0.467 8.085007,1.558c2.175995,0.935 3.884995,2.494003 5.128998,4.362003c1.398003,1.870999 2.330002,4.052 2.955002,6.544994c0.621994,2.494001 0.93,5.142 0.93,7.946001c0,4.518999 -0.465004,7.946011 -1.401001,10.284008c-0.93,2.493 -2.173004,4.52 -3.728004,6.077zm-8.549995,-24.930008c-1.243004,-1.713996 -3.420006,-2.492995 -6.372002,-2.492995l-9.328018,0l0,22.593005l9.328018,0c2.331001,0 4.042,-0.312 4.974998,-0.935001c1.086998,-0.624001 1.862999,-1.715 2.487,-3.116001c0.465004,-1.402006 0.776001,-3.895008 0.776001,-7.168007c0,-4.364 -0.622002,-7.323 -1.865997,-8.881001zm-45.080011,11.685999l-17.721005,0l0,17.76301l-11.503997,0l0,-41.291007l11.503997,0l0,14.490998l17.721005,0l0,-14.490998l11.658991,0l0,41.291007l-11.658991,0l0,-17.76301z"/>
 </g>
</svg>