<svg 
 xmlns="http://www.w3.org/2000/svg"
 xmlns:xlink="http://www.w3.org/1999/xlink"
 width="59px" height="55px">
<defs>
<filter filterUnits="userSpaceOnUse" id="Filter_0" x="0px" y="0px" width="59px" height="55px"  >
    <feOffset in="SourceAlpha" dx="0" dy="2" />
    <feGaussianBlur result="blurOut" stdDeviation="2.449" />
    <feFlood flood-color="rgb(187, 142, 255)" result="floodOut" />
    <feComposite operator="atop" in="floodOut" in2="blurOut" />
    <feComponentTransfer><feFuncA type="linear" slope="1"/></feComponentTransfer>
    <feMerge>
    <feMergeNode/>
    <feMergeNode in="SourceGraphic"/>
  </feMerge>
</filter>

</defs>
<g filter="url(#Filter_0)">
<path fill-rule="evenodd"  fill="rgb(195, 164, 252)"
 d="M39.795,24.666 L36.461,24.666 C36.078,24.666 35.767,24.355 35.767,23.972 C35.767,23.588 36.078,23.277 36.461,23.277 L39.795,23.277 C40.178,23.277 40.489,23.588 40.489,23.972 C40.489,24.355 40.178,24.666 39.795,24.666 ZM31.415,23.972 C31.415,25.274 30.356,26.333 29.054,26.333 C27.752,26.333 26.693,25.274 26.693,23.972 C26.693,22.670 27.752,21.611 29.054,21.611 C30.356,21.611 31.415,22.670 31.415,23.972 ZM28.081,23.972 C28.081,24.508 28.518,24.944 29.054,24.944 C29.590,24.944 30.026,24.508 30.026,23.972 C30.026,23.435 29.590,22.999 29.054,22.999 C28.518,22.999 28.081,23.435 28.081,23.972 ZM18.313,23.277 L21.646,23.277 C22.030,23.277 22.341,23.588 22.341,23.972 C22.341,24.355 22.030,24.666 21.646,24.666 L18.313,24.666 C17.929,24.666 17.618,24.355 17.618,23.972 C17.618,23.588 17.929,23.277 18.313,23.277 ZM39.795,20.407 L18.313,20.407 C17.929,20.407 17.618,20.096 17.618,19.712 C17.618,19.328 17.929,19.017 18.313,19.017 L39.795,19.017 C40.178,19.017 40.489,19.328 40.489,19.712 C40.489,20.096 40.178,20.407 39.795,20.407 ZM22.943,12.998 C22.559,12.998 22.248,12.687 22.248,12.303 C22.248,11.920 22.559,11.609 22.943,11.609 L35.165,11.609 C35.549,11.609 35.860,11.920 35.860,12.303 C35.860,12.687 35.549,12.998 35.165,12.998 L22.943,12.998 ZM40.489,16.008 C40.489,16.391 40.178,16.702 39.795,16.702 L18.313,16.702 C17.929,16.702 17.618,16.391 17.618,16.008 C17.618,15.624 17.929,15.313 18.313,15.313 L39.795,15.313 C40.178,15.313 40.489,15.624 40.489,16.008 ZM49.980,36.705 L35.237,36.705 C35.003,37.317 34.680,37.885 34.286,38.394 L34.286,40.595 C34.286,40.978 33.974,41.289 33.591,41.289 C33.207,41.289 32.896,40.978 32.896,40.595 L32.896,39.730 C31.812,40.506 30.486,40.965 29.054,40.965 C27.622,40.965 26.296,40.506 25.211,39.730 L25.211,44.793 L28.791,43.332 C28.960,43.263 29.148,43.263 29.316,43.332 L32.896,44.793 L32.896,43.840 C32.896,43.457 33.207,43.146 33.591,43.146 C33.974,43.146 34.286,43.457 34.286,43.840 L34.286,45.827 C34.286,46.058 34.170,46.274 33.978,46.403 C33.862,46.481 33.727,46.521 33.591,46.521 C33.502,46.521 33.413,46.504 33.328,46.470 L29.054,44.724 L24.779,46.470 C24.565,46.558 24.321,46.532 24.129,46.403 C23.937,46.274 23.822,46.058 23.822,45.827 L23.822,38.394 C23.427,37.885 23.104,37.317 22.870,36.705 L8.127,36.705 C6.723,36.705 5.581,35.563 5.581,34.159 L5.581,18.826 C5.581,18.443 5.892,18.132 6.276,18.132 C6.659,18.132 6.970,18.443 6.970,18.826 L6.970,34.159 C6.970,34.797 7.489,35.316 8.127,35.316 L22.505,35.316 C22.458,34.999 22.433,34.674 22.433,34.344 C22.433,34.013 22.458,33.689 22.505,33.371 L13.498,33.371 C13.114,33.371 12.804,33.060 12.804,32.676 C12.804,30.915 11.371,29.482 9.609,29.482 C9.226,29.482 8.915,29.171 8.915,28.787 L8.915,11.748 C8.915,11.364 9.226,11.053 9.609,11.053 C11.371,11.053 12.804,9.620 12.804,7.859 C12.804,7.475 13.114,7.164 13.498,7.164 L44.609,7.164 C44.993,7.164 45.304,7.475 45.304,7.859 C45.304,9.620 46.737,11.053 48.498,11.053 C48.882,11.053 49.193,11.364 49.193,11.748 L49.193,13.733 C49.193,14.117 48.882,14.427 48.498,14.427 C48.115,14.427 47.804,14.117 47.804,13.733 L47.804,12.390 C45.831,12.088 44.269,10.526 43.968,8.553 L14.140,8.553 C13.839,10.526 12.276,12.088 10.304,12.390 L10.304,28.145 C12.276,28.447 13.839,30.009 14.140,31.982 L22.870,31.982 C23.823,29.494 26.235,27.722 29.054,27.722 C31.872,27.722 34.284,29.494 35.237,31.982 L43.968,31.982 C44.269,30.009 45.831,28.447 47.804,28.145 L47.804,16.972 C47.804,16.589 48.115,16.278 48.498,16.278 C48.882,16.278 49.193,16.589 49.193,16.972 L49.193,28.787 C49.193,29.171 48.882,29.482 48.498,29.482 C46.737,29.482 45.304,30.915 45.304,32.676 C45.304,33.060 44.993,33.371 44.609,33.371 L35.602,33.371 C35.649,33.688 35.674,34.013 35.674,34.343 C35.674,34.674 35.649,34.999 35.602,35.316 L49.980,35.316 C50.618,35.316 51.137,34.797 51.137,34.159 L51.137,6.376 C51.137,5.739 50.618,5.219 49.980,5.219 L8.127,5.219 C7.489,5.219 6.970,5.739 6.970,6.376 L6.970,15.597 C6.970,15.980 6.659,16.291 6.276,16.291 C5.892,16.291 5.581,15.980 5.581,15.597 L5.581,6.376 C5.581,4.972 6.723,3.830 8.127,3.830 L49.980,3.830 C51.384,3.830 52.526,4.972 52.526,6.376 L52.526,34.159 C52.526,35.563 51.384,36.705 49.980,36.705 ZM29.054,29.111 C26.169,29.111 23.822,31.459 23.822,34.344 C23.822,37.229 26.169,39.576 29.054,39.576 C31.938,39.576 34.286,37.229 34.286,34.344 C34.286,31.459 31.938,29.111 29.054,29.111 ZM29.054,38.002 C27.037,38.002 25.396,36.361 25.396,34.344 C25.396,32.326 27.037,30.686 29.054,30.686 C31.071,30.686 32.711,32.326 32.711,34.344 C32.711,36.361 31.071,38.002 29.054,38.002 ZM29.054,32.075 C27.803,32.075 26.785,33.093 26.785,34.344 C26.785,35.594 27.803,36.613 29.054,36.613 C30.305,36.613 31.322,35.594 31.322,34.344 C31.322,33.093 30.305,32.075 29.054,32.075 Z"/>
</g>
</svg>