<svg 
 xmlns="http://www.w3.org/2000/svg"
 xmlns:xlink="http://www.w3.org/1999/xlink"
 width="43px" height="41px">
<defs>
<filter filterUnits="userSpaceOnUse" id="Filter_0" x="0px" y="0px" width="43px" height="41px"  >
    <feOffset in="SourceAlpha" dx="0" dy="0" />
    <feGaussianBlur result="blurOut" stdDeviation="2.449" />
    <feFlood flood-color="rgb(187, 142, 255)" result="floodOut" />
    <feComposite operator="atop" in="floodOut" in2="blurOut" />
    <feComponentTransfer><feFuncA type="linear" slope="1"/></feComponentTransfer>
    <feMerge>
    <feMergeNode/>
    <feMergeNode in="SourceGraphic"/>
  </feMerge>
</filter>

</defs>
<g filter="url(#Filter_0)">
<path fill-rule="evenodd"  fill="rgb(195, 164, 252)"
 d="M35.880,6.545 L6.120,6.545 C5.854,6.545 5.640,6.331 5.640,6.065 C5.640,5.800 5.854,5.585 6.120,5.585 L35.880,5.585 C36.146,5.585 36.360,5.800 36.360,6.065 C36.360,6.331 36.146,6.545 35.880,6.545 ZM6.120,7.025 L35.880,7.025 C36.146,7.025 36.360,7.240 36.360,7.505 C36.360,7.771 36.146,7.985 35.880,7.985 L35.878,7.985 C35.878,8.251 35.663,8.465 35.398,8.465 C35.133,8.465 34.918,8.251 34.918,7.985 L32.039,7.985 C32.039,8.251 31.824,8.465 31.559,8.465 C31.293,8.465 31.079,8.251 31.079,7.985 L28.203,7.985 C28.203,8.251 27.988,8.465 27.723,8.465 C27.457,8.465 27.243,8.251 27.243,7.985 L24.367,7.985 C24.367,8.251 24.152,8.465 23.887,8.465 C23.622,8.465 23.407,8.251 23.407,7.985 L18.591,7.985 C18.591,8.251 18.376,8.465 18.111,8.465 C17.846,8.465 17.631,8.251 17.631,7.985 L14.755,7.985 C14.755,8.251 14.541,8.465 14.275,8.465 C14.010,8.465 13.795,8.251 13.795,7.985 L10.919,7.985 C10.919,8.251 10.705,8.465 10.439,8.465 C10.174,8.465 9.960,8.251 9.960,7.985 L7.080,7.985 C7.080,8.251 6.865,8.465 6.600,8.465 C6.334,8.465 6.120,8.251 6.120,7.985 C5.854,7.985 5.640,7.771 5.640,7.505 C5.640,7.240 5.854,7.025 6.120,7.025 ZM6.120,8.946 C6.120,8.681 6.334,8.466 6.600,8.466 L18.119,8.466 C18.384,8.466 18.599,8.681 18.599,8.946 L18.599,18.540 C18.599,18.543 18.600,18.545 18.600,18.547 C18.600,22.136 16.266,25.179 13.039,26.266 C13.763,26.772 14.239,27.602 14.265,28.544 C14.270,28.571 14.281,28.595 14.281,28.623 L14.281,33.903 C14.281,34.169 14.067,34.383 13.801,34.383 L6.600,34.383 C6.334,34.383 6.120,34.169 6.120,33.903 L6.120,26.251 C6.119,26.243 6.115,26.236 6.115,26.228 C6.115,26.219 6.119,26.213 6.120,26.204 L6.120,8.946 ZM13.795,20.463 L13.795,9.426 L10.910,9.426 L10.910,22.348 C10.911,22.361 10.918,22.372 10.918,22.386 C10.918,23.701 10.314,24.867 9.384,25.660 C11.877,25.245 13.788,23.095 13.800,20.489 C13.800,20.480 13.795,20.472 13.795,20.463 ZM13.238,25.181 C13.559,25.045 13.855,24.865 14.150,24.686 C14.251,24.625 14.364,24.583 14.461,24.517 C14.827,24.270 15.166,23.985 15.481,23.676 C15.495,23.662 15.513,23.652 15.527,23.638 C16.831,22.335 17.639,20.536 17.640,18.552 C17.640,18.552 17.640,18.552 17.640,18.552 C17.640,18.550 17.639,18.549 17.639,18.547 L17.639,9.426 L14.755,9.426 L14.755,20.426 C14.756,20.439 14.763,20.450 14.763,20.463 C14.763,22.547 13.727,24.384 12.154,25.519 C12.286,25.476 12.419,25.436 12.551,25.395 C12.781,25.324 13.019,25.274 13.238,25.181 ZM11.867,28.562 C11.869,28.583 11.879,28.602 11.879,28.623 L11.879,33.423 L13.321,33.423 L13.321,28.653 C13.321,28.643 13.315,28.634 13.315,28.623 C13.315,27.567 12.456,26.708 11.400,26.708 L11.126,26.708 C11.572,27.203 11.851,27.849 11.867,28.562 ZM9.465,28.563 C9.467,28.584 9.477,28.602 9.477,28.623 L9.477,33.423 L10.919,33.423 L10.919,28.654 C10.918,28.644 10.913,28.634 10.913,28.623 C10.913,27.567 10.053,26.708 8.998,26.708 L8.724,26.708 C9.170,27.203 9.449,27.849 9.465,28.563 ZM7.080,33.423 L8.517,33.423 L8.517,28.654 C8.516,28.644 8.510,28.634 8.510,28.623 C8.510,27.735 7.900,26.994 7.080,26.778 L7.080,33.423 ZM7.080,25.699 C8.694,25.463 9.942,24.087 9.955,22.411 C9.955,22.403 9.950,22.395 9.950,22.386 L9.950,9.426 L7.080,9.426 L7.080,25.699 ZM23.399,8.946 C23.399,8.681 23.613,8.466 23.879,8.466 L35.398,8.466 C35.663,8.466 35.878,8.681 35.878,8.946 L35.878,26.204 C35.879,26.213 35.883,26.219 35.883,26.228 C35.883,26.236 35.879,26.243 35.878,26.251 L35.878,33.903 C35.878,34.169 35.663,34.383 35.398,34.383 L28.197,34.383 C27.931,34.383 27.717,34.169 27.717,33.903 L27.717,28.623 C27.717,28.594 27.728,28.570 27.733,28.542 C27.760,27.601 28.235,26.772 28.959,26.266 C25.732,25.179 23.398,22.136 23.398,18.547 C23.398,18.545 23.399,18.543 23.399,18.540 L23.399,8.946 ZM31.088,9.426 L28.203,9.426 L28.203,20.463 C28.203,20.472 28.198,20.480 28.198,20.489 C28.210,23.095 30.121,25.245 32.614,25.660 C31.684,24.867 31.080,23.701 31.080,22.386 C31.080,22.372 31.087,22.361 31.088,22.348 L31.088,9.426 ZM33.481,33.423 L34.918,33.423 L34.918,26.778 C34.098,26.994 33.488,27.735 33.488,28.623 C33.488,28.634 33.482,28.644 33.481,28.654 L33.481,33.423 ZM34.918,25.699 L34.918,9.426 L32.048,9.426 L32.048,22.386 C32.048,22.395 32.044,22.403 32.043,22.412 C32.056,24.088 33.304,25.463 34.918,25.699 ZM31.079,33.423 L32.521,33.423 L32.521,28.623 C32.521,28.602 32.531,28.583 32.534,28.562 C32.549,27.849 32.828,27.203 33.274,26.708 L33.000,26.708 C31.944,26.708 31.085,27.567 31.085,28.623 C31.085,28.634 31.080,28.644 31.079,28.654 L31.079,33.423 ZM28.683,28.623 C28.683,28.634 28.677,28.643 28.677,28.653 L28.677,33.423 L30.119,33.423 L30.119,28.623 C30.119,28.601 30.129,28.583 30.131,28.562 C30.147,27.849 30.426,27.203 30.872,26.708 L30.598,26.708 C29.542,26.708 28.683,27.567 28.683,28.623 ZM24.358,18.552 C24.359,20.536 25.167,22.335 26.471,23.638 C26.485,23.652 26.503,23.662 26.517,23.676 C26.831,23.985 27.170,24.269 27.537,24.517 C27.634,24.583 27.747,24.625 27.848,24.686 C28.143,24.865 28.438,25.045 28.759,25.181 C28.978,25.274 29.217,25.324 29.447,25.395 C29.579,25.436 29.712,25.476 29.844,25.519 C28.271,24.384 27.235,22.547 27.235,20.463 C27.235,20.450 27.242,20.439 27.243,20.426 L27.243,9.426 L24.359,9.426 L24.359,18.547 C24.359,18.549 24.358,18.550 24.358,18.552 C24.358,18.552 24.358,18.552 24.358,18.552 Z"/>
</g>
</svg>