<svg 
 xmlns="http://www.w3.org/2000/svg"
 xmlns:xlink="http://www.w3.org/1999/xlink"
 width="40px" height="52px">
<defs>
<filter filterUnits="userSpaceOnUse" id="Filter_0" x="0px" y="0px" width="40px" height="52px"  >
    <feOffset in="SourceAlpha" dx="0" dy="0" />
    <feGaussianBlur result="blurOut" stdDeviation="2.449" />
    <feFlood flood-color="rgb(187, 142, 255)" result="floodOut" />
    <feComposite operator="atop" in="floodOut" in2="blurOut" />
    <feComponentTransfer><feFuncA type="linear" slope="1"/></feComponentTransfer>
    <feMerge>
    <feMergeNode/>
    <feMergeNode in="SourceGraphic"/>
  </feMerge>
</filter>

</defs>
<g filter="url(#Filter_0)">
<path fill-rule="evenodd"  fill="rgb(195, 164, 252)"
 d="M31.074,45.640 L7.668,45.640 C6.423,45.640 5.410,44.626 5.410,43.379 L5.410,7.628 C5.410,6.382 6.423,5.368 7.668,5.368 L31.074,5.368 C32.320,5.368 33.333,6.382 33.333,7.628 L33.333,43.379 C33.333,44.626 32.320,45.640 31.074,45.640 ZM32.101,7.628 C32.101,7.062 31.640,6.601 31.074,6.601 L7.668,6.601 C7.102,6.601 6.642,7.062 6.642,7.628 L6.642,43.379 C6.642,43.946 7.102,44.407 7.668,44.407 L31.074,44.407 C31.640,44.407 32.101,43.946 32.101,43.379 L32.101,7.628 ZM30.869,26.839 C30.529,26.839 30.253,26.563 30.253,26.223 C30.253,25.882 30.529,25.607 30.869,25.607 C31.209,25.607 31.485,25.882 31.485,26.223 C31.485,26.563 31.209,26.839 30.869,26.839 ZM30.869,24.990 C30.642,24.990 30.459,24.806 30.459,24.579 C30.459,24.352 30.642,24.168 30.869,24.168 C31.096,24.168 31.280,24.352 31.280,24.579 C31.280,24.806 31.096,24.990 30.869,24.990 ZM9.106,7.833 L29.637,7.833 L29.637,43.174 L9.106,43.174 L9.106,7.833 ZM10.337,41.941 L28.405,41.941 L28.405,9.066 L10.337,9.066 L10.337,41.941 Z"/>
</g>
</svg>