<svg 
 xmlns="http://www.w3.org/2000/svg"
 xmlns:xlink="http://www.w3.org/1999/xlink"
 width="40px" height="49px">
<defs>
<filter filterUnits="userSpaceOnUse" id="Filter_0" x="0px" y="0px" width="40px" height="49px"  >
    <feOffset in="SourceAlpha" dx="0" dy="0" />
    <feGaussianBlur result="blurOut" stdDeviation="2.449" />
    <feFlood flood-color="rgb(187, 142, 255)" result="floodOut" />
    <feComposite operator="atop" in="floodOut" in2="blurOut" />
    <feComponentTransfer><feFuncA type="linear" slope="1"/></feComponentTransfer>
    <feMerge>
    <feMergeNode/>
    <feMergeNode in="SourceGraphic"/>
  </feMerge>
</filter>

</defs>
<g filter="url(#Filter_0)">
<path fill-rule="evenodd"  fill="rgb(195, 164, 252)"
 d="M31.689,18.644 C30.945,18.644 30.308,18.185 30.044,17.536 L28.980,17.536 C28.613,17.536 28.314,17.238 28.314,16.872 C28.314,16.504 28.613,16.206 28.980,16.206 L30.044,16.206 C30.308,15.558 30.945,15.099 31.689,15.099 C32.668,15.099 33.465,15.893 33.465,16.872 C33.465,17.849 32.668,18.644 31.689,18.644 ZM31.689,16.428 C31.444,16.428 31.245,16.627 31.245,16.872 C31.245,17.116 31.444,17.314 31.689,17.314 C31.934,17.314 32.133,17.116 32.133,16.872 C32.133,16.627 31.934,16.428 31.689,16.428 ZM27.125,23.254 L23.918,23.254 C23.549,23.254 23.252,22.956 23.252,22.588 C23.252,22.221 23.549,21.924 23.918,21.924 L27.125,21.924 C27.492,21.924 27.791,22.221 27.791,22.588 C27.791,22.956 27.492,23.254 27.125,23.254 ZM27.486,9.691 C27.486,10.533 27.159,10.997 26.921,11.336 C26.832,11.461 26.756,11.570 26.702,11.687 C26.588,11.927 26.348,12.069 26.098,12.069 C26.003,12.069 25.907,12.048 25.815,12.006 C25.482,11.849 25.339,11.454 25.496,11.122 C25.600,10.901 25.722,10.726 25.830,10.572 C26.032,10.286 26.154,10.112 26.154,9.691 C26.154,9.270 26.032,9.096 25.830,8.810 C25.592,8.471 25.266,8.007 25.266,7.165 C25.266,6.324 25.592,5.859 25.830,5.520 C25.860,5.478 25.889,5.436 25.918,5.394 C26.123,5.089 26.537,5.008 26.842,5.214 C27.147,5.419 27.228,5.833 27.023,6.137 C26.989,6.186 26.955,6.235 26.921,6.284 C26.719,6.570 26.598,6.743 26.598,7.165 C26.598,7.586 26.719,7.759 26.921,8.046 C27.159,8.385 27.486,8.849 27.486,9.691 ZM26.866,16.872 C26.866,17.238 26.568,17.536 26.200,17.536 L22.993,17.536 C22.624,17.536 22.327,17.238 22.327,16.872 C22.327,16.504 22.624,16.206 22.993,16.206 L26.200,16.206 C26.568,16.206 26.866,16.504 26.866,16.872 ZM21.156,23.254 L17.948,23.254 C17.581,23.254 17.282,22.956 17.282,22.588 C17.282,22.221 17.581,21.924 17.948,21.924 L21.156,21.924 C21.523,21.924 21.822,22.221 21.822,22.588 C21.822,22.956 21.523,23.254 21.156,23.254 ZM20.231,17.536 L17.023,17.536 C16.656,17.536 16.357,17.238 16.357,16.872 C16.357,16.504 16.656,16.206 17.023,16.206 L20.231,16.206 C20.599,16.206 20.897,16.504 20.897,16.872 C20.897,17.238 20.599,17.536 20.231,17.536 ZM19.301,9.691 C19.301,10.533 18.975,10.997 18.736,11.336 C18.648,11.462 18.572,11.570 18.517,11.687 C18.404,11.927 18.164,12.069 17.914,12.069 C17.819,12.069 17.723,12.048 17.631,12.006 C17.298,11.849 17.155,11.454 17.311,11.122 C17.415,10.901 17.538,10.726 17.646,10.572 C17.848,10.286 17.969,10.112 17.969,9.691 C17.969,9.270 17.848,9.096 17.646,8.810 C17.408,8.471 17.081,8.007 17.081,7.165 C17.081,6.324 17.408,5.859 17.646,5.520 C17.675,5.478 17.705,5.436 17.733,5.394 C17.939,5.089 18.353,5.008 18.658,5.214 C18.963,5.420 19.044,5.833 18.838,6.137 C18.805,6.186 18.770,6.235 18.736,6.284 C18.535,6.570 18.413,6.743 18.413,7.165 C18.413,7.586 18.535,7.759 18.736,8.046 C18.975,8.386 19.301,8.850 19.301,9.691 ZM15.187,23.254 L11.980,23.254 C11.612,23.254 11.313,22.956 11.313,22.588 C11.313,22.221 11.612,21.924 11.980,21.924 L15.187,21.924 C15.554,21.924 15.853,22.221 15.853,22.588 C15.853,22.956 15.554,23.254 15.187,23.254 ZM14.262,17.536 L11.055,17.536 C10.687,17.536 10.389,17.238 10.389,16.872 C10.389,16.504 10.687,16.206 11.055,16.206 L14.262,16.206 C14.629,16.206 14.928,16.504 14.928,16.872 C14.928,17.238 14.629,17.536 14.262,17.536 ZM11.117,9.691 C11.117,10.533 10.791,10.997 10.552,11.336 C10.464,11.462 10.388,11.570 10.333,11.687 C10.219,11.927 9.980,12.069 9.729,12.069 C9.635,12.069 9.538,12.048 9.447,12.006 C9.114,11.849 8.971,11.454 9.127,11.122 C9.231,10.901 9.353,10.726 9.462,10.572 C9.663,10.286 9.785,10.112 9.785,9.691 C9.785,9.270 9.663,9.096 9.462,8.810 C9.223,8.471 8.897,8.007 8.897,7.165 C8.897,6.324 9.223,5.859 9.462,5.520 C9.491,5.478 9.520,5.436 9.549,5.394 C9.755,5.089 10.169,5.009 10.474,5.214 C10.779,5.420 10.860,5.833 10.654,6.137 C10.621,6.186 10.586,6.235 10.552,6.284 C10.350,6.570 10.229,6.743 10.229,7.165 C10.229,7.586 10.350,7.759 10.552,8.046 C10.791,8.386 11.117,8.850 11.117,9.691 ZM8.380,17.555 C7.550,17.662 6.845,18.245 6.580,19.038 C6.488,19.317 6.228,19.494 5.949,19.494 C5.879,19.494 5.808,19.483 5.739,19.460 C5.390,19.344 5.201,18.968 5.316,18.619 C5.740,17.345 6.875,16.409 8.208,16.236 C8.573,16.189 8.907,16.445 8.954,16.809 C9.002,17.174 8.745,17.507 8.380,17.555 ZM5.975,29.983 C6.336,30.050 6.574,30.397 6.507,30.759 C6.482,30.892 6.469,31.028 6.469,31.165 C6.469,31.866 6.794,32.509 7.360,32.928 C7.656,33.147 7.717,33.563 7.498,33.858 C7.368,34.034 7.166,34.128 6.962,34.128 C6.825,34.128 6.686,34.084 6.567,33.996 C5.672,33.335 5.137,32.275 5.137,31.165 C5.137,30.947 5.158,30.727 5.198,30.514 C5.265,30.153 5.613,29.915 5.975,29.983 ZM8.668,23.254 C7.547,23.254 6.517,22.740 5.843,21.844 C5.623,21.550 5.682,21.134 5.976,20.914 C6.270,20.693 6.688,20.752 6.909,21.046 C7.328,21.604 7.969,21.924 8.668,21.924 L9.218,21.924 C9.585,21.924 9.884,22.221 9.884,22.588 C9.884,22.956 9.585,23.254 9.218,23.254 L8.668,23.254 ZM6.889,28.826 C6.739,28.492 6.889,28.098 7.225,27.948 C7.680,27.745 8.165,27.641 8.667,27.641 L10.669,27.641 C11.036,27.641 11.335,27.939 11.335,28.306 C11.335,28.673 11.036,28.971 10.669,28.971 L8.667,28.971 C8.354,28.971 8.052,29.034 7.769,29.161 C7.681,29.201 7.589,29.220 7.498,29.220 C7.243,29.220 7.000,29.073 6.889,28.826 ZM9.603,33.359 L12.811,33.359 C13.179,33.359 13.477,33.656 13.477,34.024 C13.477,34.390 13.179,34.688 12.811,34.688 L9.603,34.688 C9.236,34.688 8.937,34.390 8.937,34.024 C8.937,33.656 9.236,33.359 9.603,33.359 ZM13.430,28.971 C13.063,28.971 12.764,28.673 12.764,28.306 C12.764,27.939 13.063,27.641 13.430,27.641 L16.638,27.641 C17.006,27.641 17.304,27.939 17.304,28.306 C17.304,28.673 17.006,28.971 16.638,28.971 L13.430,28.971 ZM15.573,33.359 L18.780,33.359 C19.147,33.359 19.446,33.656 19.446,34.024 C19.446,34.390 19.147,34.688 18.780,34.688 L15.573,34.688 C15.204,34.688 14.906,34.390 14.906,34.024 C14.906,33.656 15.204,33.359 15.573,33.359 ZM19.400,28.971 C19.032,28.971 18.734,28.673 18.734,28.306 C18.734,27.939 19.032,27.641 19.400,27.641 L22.607,27.641 C22.974,27.641 23.273,27.939 23.273,28.306 C23.273,28.673 22.974,28.971 22.607,28.971 L19.400,28.971 ZM21.541,33.359 L24.748,33.359 C25.116,33.359 25.414,33.656 25.414,34.024 C25.414,34.390 25.116,34.688 24.748,34.688 L21.541,34.688 C21.174,34.688 20.875,34.390 20.875,34.024 C20.875,33.656 21.174,33.359 21.541,33.359 ZM27.510,33.359 L27.715,33.359 C28.973,33.359 30.144,34.034 30.774,35.123 C30.958,35.440 30.849,35.847 30.530,36.031 C30.425,36.091 30.311,36.120 30.198,36.120 C29.967,36.120 29.744,36.001 29.620,35.787 C29.228,35.109 28.498,34.688 27.715,34.688 L27.510,34.688 C27.142,34.688 26.844,34.390 26.844,34.024 C26.844,33.656 27.142,33.359 27.510,33.359 ZM28.759,28.814 C28.422,28.918 28.071,28.971 27.715,28.971 L25.368,28.971 C25.001,28.971 24.702,28.673 24.702,28.306 C24.702,27.939 25.001,27.641 25.368,27.641 L27.715,27.641 C27.937,27.641 28.156,27.608 28.366,27.543 C28.717,27.435 29.090,27.632 29.199,27.982 C29.307,28.332 29.111,28.705 28.759,28.814 ZM30.142,22.888 C30.843,23.551 31.245,24.483 31.245,25.448 C31.245,25.810 31.190,26.167 31.081,26.510 C30.992,26.794 30.729,26.975 30.447,26.975 C30.380,26.975 30.313,26.965 30.246,26.944 C29.895,26.833 29.700,26.459 29.811,26.109 C29.879,25.896 29.913,25.674 29.913,25.448 C29.913,24.839 29.669,24.272 29.226,23.853 C28.959,23.601 28.947,23.181 29.200,22.914 C29.453,22.647 29.875,22.636 30.142,22.888 ZM29.913,39.206 L29.913,38.145 C29.913,37.778 30.211,37.480 30.579,37.480 C30.947,37.480 31.245,37.778 31.245,38.145 L31.245,39.206 C31.895,39.469 32.355,40.106 32.355,40.848 C32.355,41.826 31.558,42.622 30.579,42.622 C29.600,42.622 28.803,41.826 28.803,40.848 C28.803,40.106 29.263,39.469 29.913,39.206 ZM30.579,41.292 C30.824,41.292 31.023,41.093 31.023,40.848 C31.023,40.604 30.824,40.406 30.579,40.406 C30.334,40.406 30.135,40.604 30.135,40.848 C30.135,41.093 30.334,41.292 30.579,41.292 Z"/>
</g>
</svg>