<svg 
 xmlns="http://www.w3.org/2000/svg"
 xmlns:xlink="http://www.w3.org/1999/xlink"
 width="53px" height="53px">
<defs>
<filter filterUnits="userSpaceOnUse" id="Filter_0" x="0px" y="0px" width="53px" height="53px"  >
    <feOffset in="SourceAlpha" dx="0" dy="0" />
    <feGaussianBlur result="blurOut" stdDeviation="2.449" />
    <feFlood flood-color="rgb(187, 142, 255)" result="floodOut" />
    <feComposite operator="atop" in="floodOut" in2="blurOut" />
    <feComponentTransfer><feFuncA type="linear" slope="1"/></feComponentTransfer>
    <feMerge>
    <feMergeNode/>
    <feMergeNode in="SourceGraphic"/>
  </feMerge>
</filter>

</defs>
<g filter="url(#Filter_0)">
<path fill-rule="evenodd"  fill="rgb(195, 164, 252)"
 d="M26.000,46.480 C14.707,46.480 5.520,37.292 5.520,26.000 C5.520,14.707 14.707,5.520 26.000,5.520 C37.292,5.520 46.480,14.707 46.480,26.000 C46.480,37.292 37.292,46.480 26.000,46.480 ZM26.000,7.227 C15.648,7.227 7.227,15.648 7.227,26.000 C7.227,36.352 15.648,44.773 26.000,44.773 C36.352,44.773 44.773,36.352 44.773,26.000 C44.773,15.648 36.352,7.227 26.000,7.227 ZM28.560,39.653 L23.440,39.653 C22.968,39.653 22.587,39.272 22.587,38.800 L22.587,26.000 L21.733,26.000 C21.262,26.000 20.880,25.618 20.880,25.146 L20.880,21.733 C20.880,21.261 21.262,20.880 21.733,20.880 L28.560,20.880 C29.032,20.880 29.413,21.261 29.413,21.733 L29.413,38.800 C29.413,39.272 29.032,39.653 28.560,39.653 ZM27.706,22.586 L22.586,22.586 L22.586,24.293 L23.440,24.293 C23.912,24.293 24.293,24.675 24.293,25.146 L24.293,37.946 L27.706,37.946 L27.706,22.586 ZM26.000,19.173 C24.117,19.173 22.587,17.642 22.587,15.760 C22.587,13.877 24.117,12.346 26.000,12.346 C27.882,12.346 29.413,13.877 29.413,15.760 C29.413,17.642 27.882,19.173 26.000,19.173 ZM26.000,14.053 C25.059,14.053 24.293,14.819 24.293,15.760 C24.293,16.701 25.059,17.466 26.000,17.466 C26.941,17.466 27.707,16.701 27.707,15.760 C27.707,14.819 26.941,14.053 26.000,14.053 Z"/>
</g>
</svg>