<svg 
 xmlns="http://www.w3.org/2000/svg"
 xmlns:xlink="http://www.w3.org/1999/xlink"
 width="43px" height="51px">
<defs>
<filter filterUnits="userSpaceOnUse" id="Filter_0" x="0px" y="0px" width="43px" height="51px"  >
    <feOffset in="SourceAlpha" dx="0" dy="0" />
    <feGaussianBlur result="blurOut" stdDeviation="2.449" />
    <feFlood flood-color="rgb(187, 142, 255)" result="floodOut" />
    <feComposite operator="atop" in="floodOut" in2="blurOut" />
    <feComponentTransfer><feFuncA type="linear" slope="1"/></feComponentTransfer>
    <feMerge>
    <feMergeNode/>
    <feMergeNode in="SourceGraphic"/>
  </feMerge>
</filter>

</defs>
<g filter="url(#Filter_0)">
<path fill-rule="evenodd"  fill="rgb(195, 164, 252)"
 d="M35.720,21.753 L33.160,21.753 C32.807,21.753 32.520,21.467 32.520,21.113 C32.520,20.760 32.807,20.474 33.160,20.474 L35.720,20.474 C36.073,20.474 36.360,20.760 36.360,21.113 C36.360,21.467 36.073,21.753 35.720,21.753 ZM34.075,14.305 C34.072,14.306 34.070,14.308 34.068,14.309 L31.851,15.589 C31.546,15.768 31.154,15.665 30.975,15.361 C30.797,15.056 30.899,14.664 31.204,14.485 C31.206,14.483 31.209,14.482 31.211,14.481 L33.427,13.201 C33.732,13.022 34.125,13.124 34.303,13.429 C34.482,13.734 34.380,14.126 34.075,14.305 ZM28.914,8.689 L27.634,10.904 C27.459,11.212 27.069,11.319 26.762,11.145 C26.454,10.970 26.347,10.579 26.521,10.272 C26.523,10.270 26.524,10.267 26.526,10.265 L27.806,8.049 C27.980,7.741 28.371,7.634 28.678,7.809 C28.986,7.983 29.093,8.374 28.919,8.681 C28.917,8.684 28.916,8.686 28.914,8.689 ZM21.000,9.596 C20.646,9.596 20.360,9.309 20.360,8.956 L20.360,6.396 C20.360,6.043 20.646,5.757 21.000,5.757 C21.353,5.757 21.640,6.043 21.640,6.396 L21.640,8.956 C21.640,9.310 21.354,9.596 21.000,9.596 ZM15.241,11.139 C15.240,11.139 15.240,11.139 15.240,11.139 C14.934,11.316 14.542,11.211 14.366,10.904 L13.086,8.689 C12.907,8.384 13.009,7.992 13.314,7.813 C13.619,7.634 14.011,7.736 14.190,8.041 C14.191,8.044 14.193,8.046 14.194,8.049 L15.474,10.265 C15.651,10.570 15.547,10.962 15.241,11.139 ZM10.156,15.593 C10.154,15.592 10.151,15.590 10.149,15.589 L7.933,14.309 C7.625,14.135 7.518,13.744 7.692,13.437 C7.867,13.129 8.258,13.022 8.565,13.197 C8.567,13.198 8.570,13.200 8.572,13.201 L10.789,14.481 C11.096,14.655 11.204,15.046 11.029,15.353 C10.854,15.660 10.464,15.768 10.156,15.593 ZM9.480,21.113 C9.480,21.467 9.193,21.753 8.840,21.753 L6.280,21.753 C5.927,21.753 5.640,21.467 5.640,21.113 C5.640,20.760 5.927,20.474 6.280,20.474 L8.840,20.474 C9.193,20.474 9.480,20.760 9.480,21.113 ZM7.925,27.922 C7.928,27.921 7.930,27.920 7.933,27.918 L10.149,26.638 C10.454,26.460 10.846,26.562 11.025,26.867 C11.203,27.172 11.101,27.564 10.796,27.742 C10.794,27.744 10.791,27.745 10.789,27.746 L8.572,29.026 C8.267,29.205 7.875,29.103 7.697,28.798 C7.518,28.493 7.620,28.101 7.925,27.922 ZM13.075,14.629 C13.341,14.303 13.628,13.994 13.933,13.704 L13.935,13.704 C15.832,11.882 18.363,10.868 20.994,10.875 C21.161,10.875 21.329,10.879 21.497,10.888 C26.902,11.209 31.148,15.637 31.240,21.050 C31.266,24.163 29.866,27.117 27.439,29.068 C27.000,29.440 26.751,29.990 26.760,30.565 L26.760,31.991 C26.757,32.802 26.244,33.523 25.480,33.793 L25.480,34.551 C25.478,35.024 25.300,35.481 24.981,35.831 C25.646,36.554 25.646,37.667 24.981,38.390 C25.690,39.164 25.638,40.367 24.864,41.076 C24.659,41.264 24.414,41.405 24.149,41.489 C23.857,43.225 22.212,44.397 20.474,44.104 C19.134,43.879 18.083,42.829 17.858,41.489 C16.855,41.177 16.295,40.111 16.607,39.108 C16.690,38.842 16.831,38.596 17.019,38.390 C16.354,37.667 16.354,36.554 17.019,35.831 C16.700,35.481 16.522,35.024 16.520,34.551 L16.520,33.793 C15.756,33.523 15.243,32.802 15.240,31.991 L15.240,30.491 C15.229,29.918 14.960,29.381 14.509,29.028 C10.136,25.448 9.494,19.001 13.075,14.629 ZM21.000,42.869 C21.813,42.869 22.538,42.356 22.810,41.589 L19.189,41.589 C19.462,42.356 20.187,42.869 21.000,42.869 ZM18.440,40.310 L23.560,40.310 C23.913,40.310 24.200,40.023 24.200,39.670 C24.200,39.317 23.913,39.030 23.560,39.030 L18.440,39.030 C18.087,39.030 17.800,39.317 17.800,39.670 C17.800,40.023 18.087,40.310 18.440,40.310 ZM18.440,37.750 L23.560,37.750 C23.913,37.750 24.200,37.464 24.200,37.110 C24.200,36.757 23.913,36.471 23.560,36.471 L18.440,36.471 C18.087,36.471 17.800,36.757 17.800,37.110 C17.800,37.464 18.087,37.750 18.440,37.750 ZM17.800,34.551 C17.800,34.904 18.087,35.191 18.440,35.191 L23.560,35.191 C23.913,35.191 24.200,34.904 24.200,34.551 L24.200,33.911 L17.800,33.911 L17.800,34.551 ZM15.320,28.034 L15.320,28.037 C16.069,28.633 16.509,29.534 16.520,30.491 L16.520,31.991 C16.520,32.345 16.807,32.631 17.160,32.631 L24.840,32.631 C25.193,32.631 25.480,32.345 25.480,31.991 L25.480,30.565 C25.466,29.603 25.890,28.687 26.632,28.074 C28.756,26.368 29.982,23.783 29.960,21.059 C29.881,16.322 26.166,12.446 21.436,12.165 C16.496,11.923 12.295,15.732 12.053,20.673 C11.915,23.505 13.127,26.236 15.320,28.034 ZM31.532,26.552 C31.644,26.552 31.754,26.582 31.852,26.638 L34.068,27.918 C34.375,28.093 34.483,28.484 34.308,28.790 C34.133,29.098 33.743,29.205 33.435,29.031 C33.433,29.029 33.430,29.028 33.428,29.026 L31.212,27.746 C30.906,27.570 30.801,27.178 30.977,26.872 C31.092,26.674 31.303,26.552 31.532,26.552 Z"/>
</g>
</svg>