<svg 
 xmlns="http://www.w3.org/2000/svg"
 xmlns:xlink="http://www.w3.org/1999/xlink"
 width="18px" height="21px">
<path fill-rule="evenodd"  fill="rgb(255, 255, 255)"
 d="M17.091,20.229 L0.909,20.229 C0.661,20.228 0.460,20.027 0.459,19.780 C0.459,17.333 1.345,16.161 2.959,14.511 C4.550,12.883 6.694,11.988 9.000,11.988 C11.306,11.988 13.450,12.888 15.041,14.515 C16.655,16.161 17.540,17.338 17.540,19.780 C17.540,20.027 17.339,20.228 17.091,20.229 ZM14.394,15.145 C12.974,13.692 11.054,12.892 8.996,12.892 C6.937,12.892 5.018,13.692 3.597,15.145 C2.253,16.521 1.466,17.297 1.367,19.330 L16.624,19.330 C16.525,17.297 15.742,16.521 14.394,15.145 ZM9.000,11.382 C6.072,11.380 3.698,9.006 3.696,6.076 C3.696,3.146 6.071,0.770 9.000,0.770 C11.930,0.770 14.304,3.146 14.304,6.076 C14.304,9.007 11.930,11.382 9.000,11.382 ZM9.000,1.669 C6.569,1.673 4.599,3.644 4.595,6.076 C4.595,8.509 6.567,10.483 9.000,10.483 C11.433,10.483 13.405,8.509 13.405,6.076 C13.405,3.642 11.433,1.669 9.000,1.669 Z"/>
</svg>