<svg 
 xmlns="http://www.w3.org/2000/svg"
 xmlns:xlink="http://www.w3.org/1999/xlink"
 width="59px" height="59px">
<defs>
<filter filterUnits="userSpaceOnUse" id="Filter_0" x="0px" y="0px" width="59px" height="59px"  >
    <feOffset in="SourceAlpha" dx="0" dy="0" />
    <feGaussianBlur result="blurOut" stdDeviation="2.449" />
    <feFlood flood-color="rgb(187, 142, 255)" result="floodOut" />
    <feComposite operator="atop" in="floodOut" in2="blurOut" />
    <feComponentTransfer><feFuncA type="linear" slope="1"/></feComponentTransfer>
    <feMerge>
    <feMergeNode/>
    <feMergeNode in="SourceGraphic"/>
  </feMerge>
</filter>

</defs>
<g filter="url(#Filter_0)">
<path fill-rule="evenodd"  fill="rgb(195, 164, 252)"
 d="M52.040,29.000 C52.040,35.154 49.643,40.940 45.292,45.292 C40.940,49.643 35.154,52.040 29.000,52.040 C27.472,52.040 25.943,51.889 24.457,51.592 C23.970,51.494 23.654,51.020 23.751,50.533 C23.849,50.045 24.323,49.729 24.810,49.827 C26.180,50.101 27.590,50.240 29.000,50.240 C40.712,50.240 50.240,40.712 50.240,29.000 C50.240,24.272 48.649,19.657 45.751,15.941 C45.201,16.243 44.580,16.404 43.935,16.404 C42.926,16.404 41.976,16.011 41.262,15.297 C40.548,14.583 40.155,13.634 40.155,12.624 C40.155,11.615 40.548,10.665 41.262,9.951 C41.976,9.238 42.926,8.844 43.935,8.844 C44.945,8.844 45.894,9.238 46.608,9.951 C47.902,11.246 48.059,13.252 47.081,14.720 C50.282,18.771 52.040,23.823 52.040,29.000 ZM45.336,11.224 C44.962,10.850 44.464,10.645 43.935,10.645 C43.407,10.645 42.909,10.850 42.536,11.224 C42.161,11.598 41.955,12.096 41.955,12.624 C41.955,13.153 42.161,13.650 42.536,14.024 C42.909,14.399 43.406,14.604 43.935,14.604 C44.464,14.604 44.962,14.399 45.336,14.024 C46.107,13.253 46.107,11.996 45.336,11.224 ZM42.831,20.040 C42.831,20.279 42.736,20.508 42.567,20.676 L41.343,21.900 C41.956,22.963 42.424,24.095 42.743,25.278 L44.481,25.278 C44.978,25.278 45.381,25.681 45.381,26.178 L45.381,31.805 C45.381,32.302 44.978,32.705 44.481,32.705 L42.743,32.705 C42.425,33.889 41.956,35.020 41.343,36.083 L42.574,37.313 C42.925,37.665 42.925,38.235 42.574,38.586 L38.596,42.566 C38.427,42.735 38.198,42.831 37.960,42.831 C37.721,42.831 37.492,42.735 37.323,42.567 L36.091,41.335 C35.028,41.947 33.897,42.416 32.714,42.735 L32.714,44.480 C32.714,44.977 32.311,45.380 31.814,45.380 L26.186,45.380 C25.689,45.380 25.286,44.977 25.286,44.480 L25.286,42.735 C24.103,42.416 22.972,41.947 21.908,41.335 L20.677,42.567 C20.508,42.735 20.279,42.831 20.040,42.831 L20.040,42.831 C19.801,42.831 19.572,42.735 19.404,42.566 L15.426,38.586 C15.075,38.235 15.075,37.665 15.426,37.313 L16.657,36.083 C16.044,35.020 15.575,33.889 15.257,32.705 L13.518,32.705 C13.280,32.705 13.051,32.610 12.882,32.441 C12.713,32.273 12.618,32.043 12.618,31.805 L12.622,26.177 C12.622,25.681 13.025,25.278 13.522,25.278 L15.257,25.278 C15.575,24.094 16.044,22.963 16.657,21.900 L15.433,20.676 C15.264,20.508 15.169,20.279 15.169,20.040 C15.169,19.801 15.264,19.572 15.433,19.403 L19.414,15.426 C19.765,15.075 20.335,15.075 20.686,15.426 L21.909,16.648 C22.972,16.036 24.103,15.567 25.286,15.249 L25.286,13.520 C25.286,13.023 25.689,12.620 26.186,12.620 L31.814,12.620 C32.311,12.620 32.714,13.023 32.714,13.520 L32.714,15.248 C33.897,15.567 35.028,16.036 36.091,16.648 L37.313,15.426 C37.665,15.075 38.235,15.075 38.586,15.426 L42.567,19.403 C42.735,19.572 42.830,19.801 42.831,20.040 ZM39.570,21.128 L40.657,20.040 L37.950,17.335 L36.863,18.421 C36.563,18.722 36.094,18.772 35.738,18.541 C34.476,17.725 33.091,17.152 31.624,16.836 C31.210,16.747 30.913,16.381 30.913,15.956 L30.913,14.420 L27.086,14.420 L27.086,15.957 C27.086,16.381 26.790,16.747 26.375,16.837 C24.908,17.152 23.524,17.726 22.261,18.542 C21.905,18.772 21.436,18.722 21.136,18.422 L20.049,17.335 L17.342,20.040 L18.430,21.128 C18.730,21.428 18.780,21.897 18.549,22.253 C17.733,23.516 17.160,24.900 16.845,26.367 C16.755,26.782 16.389,27.078 15.965,27.078 L14.421,27.078 L14.419,30.905 L15.965,30.905 C16.389,30.905 16.755,31.201 16.845,31.616 C17.160,33.083 17.733,34.468 18.549,35.730 C18.780,36.087 18.730,36.555 18.430,36.855 L17.335,37.950 L20.040,40.658 L21.136,39.562 C21.436,39.262 21.905,39.212 22.261,39.442 C23.524,40.258 24.908,40.832 26.375,41.147 C26.790,41.236 27.086,41.603 27.086,42.027 L27.086,43.580 L30.913,43.580 L30.913,42.027 C30.913,41.602 31.210,41.236 31.624,41.147 C33.091,40.832 34.476,40.258 35.738,39.442 C36.094,39.212 36.563,39.261 36.863,39.562 L37.959,40.657 L40.664,37.950 L39.570,36.855 C39.270,36.555 39.220,36.087 39.450,35.730 C40.266,34.468 40.840,33.083 41.155,31.616 C41.244,31.201 41.610,30.905 42.035,30.905 L43.581,30.905 L43.581,27.078 L42.035,27.078 C41.610,27.078 41.244,26.782 41.155,26.367 C40.840,24.900 40.266,23.516 39.450,22.253 C39.220,21.897 39.269,21.428 39.570,21.128 ZM29.000,36.436 C24.899,36.436 21.563,33.100 21.563,29.000 C21.563,24.899 24.899,21.563 29.000,21.563 C33.101,21.563 36.437,24.899 36.437,29.000 C36.437,33.100 33.101,36.436 29.000,36.436 ZM29.000,23.363 C25.892,23.363 23.363,25.892 23.363,29.000 C23.363,32.108 25.892,34.636 29.000,34.636 C32.108,34.636 34.637,32.107 34.637,29.000 C34.637,25.892 32.108,23.363 29.000,23.363 ZM37.287,9.363 C37.049,9.363 36.818,9.267 36.651,9.100 C36.483,8.932 36.387,8.700 36.387,8.462 C36.387,8.226 36.483,7.995 36.651,7.826 C36.818,7.659 37.049,7.562 37.287,7.562 C37.524,7.562 37.756,7.659 37.923,7.826 C38.091,7.995 38.187,8.227 38.187,8.462 C38.187,8.700 38.091,8.932 37.923,9.100 C37.756,9.267 37.524,9.363 37.287,9.363 ZM33.230,8.181 C31.847,7.901 30.424,7.760 29.000,7.760 C17.288,7.760 7.760,17.288 7.760,29.000 C7.760,33.728 9.351,38.343 12.249,42.058 C12.799,41.756 13.419,41.595 14.065,41.595 C15.074,41.595 16.023,41.988 16.737,42.702 C17.451,43.416 17.845,44.365 17.845,45.375 C17.845,46.385 17.451,47.334 16.737,48.048 C16.023,48.762 15.074,49.155 14.065,49.155 C13.055,49.155 12.106,48.762 11.392,48.048 C10.678,47.334 10.285,46.385 10.285,45.375 C10.285,44.618 10.506,43.894 10.918,43.279 C7.718,39.228 5.960,34.177 5.960,29.000 C5.960,22.846 8.357,17.060 12.708,12.708 C17.060,8.356 22.846,5.960 29.000,5.960 C30.543,5.960 32.086,6.113 33.586,6.417 C34.074,6.515 34.389,6.990 34.290,7.477 C34.192,7.965 33.716,8.279 33.230,8.181 ZM12.665,46.775 C13.039,47.149 13.536,47.355 14.065,47.355 C14.593,47.355 15.091,47.149 15.464,46.775 C15.839,46.401 16.045,45.904 16.045,45.375 C16.045,44.846 15.839,44.349 15.464,43.975 C15.090,43.601 14.593,43.395 14.065,43.395 C13.536,43.395 13.038,43.601 12.665,43.975 C12.291,44.349 12.085,44.846 12.085,45.375 C12.085,45.904 12.291,46.401 12.665,46.775 ZM20.752,48.652 C20.989,48.652 21.221,48.748 21.389,48.916 C21.556,49.083 21.652,49.316 21.652,49.552 C21.652,49.788 21.556,50.021 21.389,50.189 C21.221,50.356 20.989,50.452 20.752,50.452 C20.516,50.452 20.283,50.356 20.116,50.189 C19.949,50.021 19.852,49.790 19.852,49.552 C19.852,49.316 19.949,49.083 20.116,48.916 C20.283,48.748 20.516,48.652 20.752,48.652 Z"/>
</g>
</svg>