<svg 
 xmlns="http://www.w3.org/2000/svg"
 xmlns:xlink="http://www.w3.org/1999/xlink"
 width="57px" height="44px">
<defs>
<filter filterUnits="userSpaceOnUse" id="Filter_0" x="0px" y="0px" width="57px" height="44px"  >
    <feOffset in="SourceAlpha" dx="0" dy="0" />
    <feGaussianBlur result="blurOut" stdDeviation="2.449" />
    <feFlood flood-color="rgb(187, 142, 255)" result="floodOut" />
    <feComposite operator="atop" in="floodOut" in2="blurOut" />
    <feComponentTransfer><feFuncA type="linear" slope="1"/></feComponentTransfer>
    <feMerge>
    <feMergeNode/>
    <feMergeNode in="SourceGraphic"/>
  </feMerge>
</filter>

</defs>
<g filter="url(#Filter_0)">
<path fill-rule="evenodd"  fill="rgb(195, 164, 252)"
 d="M47.666,28.773 L47.666,16.912 L49.262,16.247 C50.380,15.782 50.547,15.103 50.547,14.740 C50.547,14.377 50.380,13.698 49.263,13.233 L30.418,5.387 C29.107,4.842 27.053,4.842 25.741,5.387 L6.897,13.233 C5.779,13.698 5.612,14.377 5.612,14.740 C5.612,15.103 5.779,15.782 6.897,16.247 L13.390,18.950 L13.390,28.717 C13.392,28.898 13.467,29.071 13.599,29.196 C13.731,29.322 13.908,29.387 14.090,29.379 L15.086,29.379 C18.736,29.379 22.407,32.748 24.837,34.965 C26.463,36.448 27.212,37.113 27.917,37.113 C28.611,37.113 29.356,36.443 30.974,34.959 C33.392,32.742 37.046,29.379 40.587,29.379 L41.770,29.379 C41.951,29.387 42.129,29.321 42.261,29.196 C42.392,29.071 42.468,28.898 42.469,28.716 L42.469,19.074 L46.266,17.494 L46.266,28.764 C44.394,29.112 43.093,30.827 43.261,32.724 C43.431,34.621 45.014,36.079 46.919,36.091 C48.824,36.103 50.426,34.666 50.619,32.771 C50.812,30.876 49.534,29.145 47.666,28.773 L47.666,28.773 ZM7.057,14.740 C7.171,14.649 7.298,14.575 7.434,14.524 L26.279,6.679 C27.238,6.280 28.921,6.280 29.880,6.679 L48.725,14.524 C48.861,14.575 48.988,14.649 49.102,14.740 C48.988,14.832 48.861,14.904 48.725,14.955 L29.880,22.801 C28.921,23.201 27.238,23.201 26.279,22.801 L7.435,14.955 C7.298,14.904 7.171,14.832 7.057,14.740 L7.057,14.740 ZM41.071,27.980 L40.587,27.980 C36.502,27.980 32.607,31.570 30.029,33.933 C29.245,34.652 28.278,35.548 27.914,35.702 C27.546,35.553 26.572,34.649 25.780,33.927 C23.191,31.564 19.278,27.980 15.086,27.980 L14.789,27.980 L14.789,19.533 L25.741,24.092 C26.397,24.365 27.238,24.502 28.080,24.502 C28.921,24.502 29.762,24.365 30.418,24.092 L41.071,19.658 L41.071,27.980 ZM46.941,34.720 C46.006,34.724 45.160,34.165 44.799,33.302 C44.438,32.439 44.633,31.444 45.293,30.782 C45.952,30.118 46.947,29.919 47.811,30.275 C48.676,30.632 49.240,31.475 49.240,32.410 C49.241,33.682 48.213,34.715 46.941,34.720 L46.941,34.720 Z"/>
</g>
</svg>