<svg 
 xmlns="http://www.w3.org/2000/svg"
 xmlns:xlink="http://www.w3.org/1999/xlink"
 width="43px" height="41px">
<defs>
<filter filterUnits="userSpaceOnUse" id="Filter_0" x="0px" y="0px" width="43px" height="41px"  >
    <feOffset in="SourceAlpha" dx="0" dy="0" />
    <feGaussianBlur result="blurOut" stdDeviation="2.449" />
    <feFlood flood-color="rgb(187, 142, 255)" result="floodOut" />
    <feComposite operator="atop" in="floodOut" in2="blurOut" />
    <feComponentTransfer><feFuncA type="linear" slope="1"/></feComponentTransfer>
    <feMerge>
    <feMergeNode/>
    <feMergeNode in="SourceGraphic"/>
  </feMerge>
</filter>

</defs>
<g filter="url(#Filter_0)">
<path fill-rule="evenodd"  fill="rgb(195, 164, 252)"
 d="M35.880,6.544 L6.120,6.544 C5.854,6.544 5.640,6.330 5.640,6.064 C5.640,5.799 5.854,5.584 6.120,5.584 L35.880,5.584 C36.145,5.584 36.360,5.799 36.360,6.064 C36.360,6.330 36.145,6.544 35.880,6.544 ZM6.120,7.025 L35.880,7.025 C36.145,7.025 36.360,7.239 36.360,7.505 C36.360,7.770 36.145,7.984 35.880,7.984 L35.878,7.984 C35.878,8.250 35.663,8.464 35.398,8.464 C35.132,8.464 34.918,8.250 34.918,7.984 L32.038,7.984 C32.038,8.250 31.824,8.464 31.558,8.464 C31.293,8.464 31.078,8.250 31.078,7.984 L28.203,7.984 C28.203,8.250 27.988,8.464 27.723,8.464 C27.457,8.464 27.243,8.250 27.243,7.984 L24.367,7.984 C24.367,8.250 24.152,8.464 23.887,8.464 C23.621,8.464 23.407,8.250 23.407,7.984 L18.591,7.984 C18.591,8.250 18.376,8.464 18.111,8.464 C17.845,8.464 17.631,8.250 17.631,7.984 L14.755,7.984 C14.755,8.250 14.540,8.464 14.275,8.464 C14.010,8.464 13.795,8.250 13.795,7.984 L10.919,7.984 C10.919,8.250 10.705,8.464 10.439,8.464 C10.174,8.464 9.959,8.250 9.959,7.984 L7.080,7.984 C7.080,8.250 6.865,8.464 6.600,8.464 C6.334,8.464 6.120,8.250 6.120,7.984 C5.854,7.984 5.640,7.770 5.640,7.505 C5.640,7.239 5.854,7.025 6.120,7.025 ZM6.120,8.946 C6.120,8.680 6.334,8.465 6.600,8.465 L18.119,8.465 C18.384,8.465 18.599,8.680 18.599,8.946 L18.599,18.540 C18.599,18.542 18.600,18.544 18.600,18.547 C18.600,22.136 16.266,25.178 13.038,26.266 C13.763,26.771 14.239,27.601 14.265,28.543 C14.270,28.570 14.281,28.595 14.281,28.623 L14.281,33.903 C14.281,34.168 14.067,34.383 13.801,34.383 L6.600,34.383 C6.334,34.383 6.120,34.168 6.120,33.903 L6.120,26.251 C6.119,26.243 6.115,26.236 6.115,26.227 C6.115,26.219 6.119,26.212 6.120,26.204 L6.120,8.946 ZM13.795,20.463 L13.795,9.425 L10.910,9.425 L10.910,22.347 C10.911,22.361 10.917,22.372 10.917,22.386 C10.917,23.701 10.314,24.867 9.384,25.660 C11.876,25.245 13.787,23.095 13.800,20.488 C13.800,20.479 13.795,20.472 13.795,20.463 ZM13.238,25.181 C13.559,25.045 13.855,24.865 14.150,24.686 C14.251,24.625 14.364,24.583 14.461,24.517 C14.827,24.269 15.166,23.985 15.481,23.676 C15.495,23.662 15.513,23.652 15.527,23.638 C16.830,22.335 17.638,20.536 17.640,18.551 C17.640,18.551 17.640,18.551 17.640,18.551 C17.640,18.550 17.639,18.548 17.639,18.547 L17.639,9.425 L14.755,9.425 L14.755,20.426 C14.756,20.439 14.763,20.450 14.763,20.463 C14.763,22.547 13.727,24.384 12.153,25.519 C12.285,25.476 12.418,25.436 12.551,25.395 C12.780,25.324 13.019,25.274 13.238,25.181 ZM11.867,28.562 C11.869,28.583 11.879,28.601 11.879,28.623 L11.879,33.423 L13.321,33.423 L13.321,28.653 C13.321,28.642 13.315,28.633 13.315,28.623 C13.315,27.567 12.456,26.707 11.400,26.707 L11.125,26.707 C11.572,27.202 11.851,27.848 11.867,28.562 ZM9.464,28.563 C9.467,28.583 9.477,28.602 9.477,28.623 L9.477,33.423 L10.919,33.423 L10.919,28.654 C10.918,28.643 10.913,28.634 10.913,28.623 C10.913,27.567 10.053,26.707 8.998,26.707 L8.723,26.707 C9.170,27.203 9.449,27.849 9.464,28.563 ZM7.080,33.423 L8.517,33.423 L8.517,28.654 C8.516,28.643 8.510,28.634 8.510,28.623 C8.510,27.735 7.900,26.993 7.080,26.777 L7.080,33.423 ZM7.080,25.699 C8.694,25.463 9.942,24.087 9.955,22.411 C9.954,22.402 9.950,22.395 9.950,22.386 L9.950,9.425 L7.080,9.425 L7.080,25.699 ZM23.399,8.946 C23.399,8.680 23.613,8.465 23.879,8.465 L35.398,8.465 C35.663,8.465 35.878,8.680 35.878,8.946 L35.878,26.204 C35.878,26.212 35.883,26.219 35.883,26.227 C35.883,26.236 35.878,26.243 35.878,26.251 L35.878,33.903 C35.878,34.168 35.663,34.383 35.398,34.383 L28.196,34.383 C27.931,34.383 27.716,34.168 27.716,33.903 L27.716,28.623 C27.716,28.594 27.728,28.569 27.733,28.542 C27.760,27.600 28.235,26.771 28.960,26.266 C25.732,25.178 23.397,22.136 23.397,18.547 C23.397,18.544 23.399,18.542 23.399,18.540 L23.399,8.946 ZM31.088,9.425 L28.203,9.425 L28.203,20.463 C28.203,20.472 28.198,20.479 28.197,20.488 C28.210,23.094 30.121,25.245 32.614,25.660 C31.684,24.867 31.080,23.701 31.080,22.386 C31.080,22.372 31.087,22.361 31.088,22.347 L31.088,9.425 ZM33.481,33.423 L34.918,33.423 L34.918,26.777 C34.097,26.993 33.488,27.735 33.488,28.623 C33.488,28.634 33.482,28.643 33.481,28.654 L33.481,33.423 ZM34.918,25.699 L34.918,9.425 L32.048,9.425 L32.048,22.386 C32.048,22.395 32.043,22.403 32.043,22.411 C32.056,24.087 33.304,25.463 34.918,25.699 ZM31.079,33.423 L32.521,33.423 L32.521,28.623 C32.521,28.601 32.531,28.583 32.533,28.562 C32.549,27.848 32.828,27.202 33.275,26.707 L33.000,26.707 C31.944,26.707 31.085,27.567 31.085,28.623 C31.085,28.634 31.080,28.643 31.079,28.654 L31.079,33.423 ZM28.683,28.623 C28.683,28.633 28.677,28.642 28.677,28.653 L28.677,33.423 L30.119,33.423 L30.119,28.623 C30.119,28.601 30.128,28.583 30.131,28.562 C30.147,27.848 30.426,27.202 30.872,26.707 L30.598,26.707 C29.542,26.707 28.683,27.567 28.683,28.623 ZM24.358,18.551 C24.359,20.535 25.167,22.334 26.471,23.637 C26.485,23.652 26.503,23.662 26.517,23.676 C26.831,23.985 27.170,24.269 27.536,24.517 C27.634,24.583 27.747,24.625 27.848,24.686 C28.143,24.865 28.438,25.045 28.759,25.181 C28.978,25.274 29.217,25.324 29.447,25.395 C29.580,25.436 29.713,25.476 29.845,25.519 C28.271,24.384 27.235,22.547 27.235,20.463 C27.235,20.450 27.242,20.439 27.243,20.426 L27.243,9.425 L24.359,9.425 L24.359,18.547 C24.359,18.548 24.358,18.549 24.358,18.551 C24.358,18.551 24.358,18.551 24.358,18.551 Z"/>
</g>
</svg>