<svg 
 xmlns="http://www.w3.org/2000/svg"
 xmlns:xlink="http://www.w3.org/1999/xlink"
 width="64px" height="53px">
<defs>
<filter filterUnits="userSpaceOnUse" id="Filter_0" x="0px" y="0px" width="64px" height="53px"  >
    <feOffset in="SourceAlpha" dx="0" dy="2" />
    <feGaussianBlur result="blurOut" stdDeviation="2.449" />
    <feFlood flood-color="rgb(187, 142, 255)" result="floodOut" />
    <feComposite operator="atop" in="floodOut" in2="blurOut" />
    <feComponentTransfer><feFuncA type="linear" slope="1"/></feComponentTransfer>
    <feMerge>
    <feMergeNode/>
    <feMergeNode in="SourceGraphic"/>
  </feMerge>
</filter>

</defs>
<g filter="url(#Filter_0)">
<path fill-rule="evenodd"  fill="rgb(195, 164, 252)"
 d="M56.969,44.984 L48.457,44.984 L39.944,44.984 L31.431,44.984 C30.960,44.984 30.580,44.603 30.580,44.132 L30.580,40.727 L30.580,12.622 L29.379,15.086 C29.378,15.086 29.378,15.086 29.377,15.087 L17.563,39.306 C17.563,39.306 17.562,39.307 17.562,39.307 L15.040,44.475 C14.941,44.678 14.765,44.834 14.552,44.906 C14.463,44.938 14.369,44.953 14.276,44.953 C14.148,44.953 14.020,44.924 13.902,44.866 L6.252,41.134 C5.829,40.928 5.653,40.418 5.859,39.996 L8.232,35.133 C8.232,35.132 8.233,35.132 8.233,35.131 L20.144,10.713 L22.283,6.330 C22.382,6.128 22.558,5.972 22.771,5.899 C22.984,5.823 23.218,5.839 23.421,5.939 L30.580,9.431 L30.580,6.673 C30.580,6.203 30.960,5.822 31.431,5.822 L39.944,5.822 L47.605,5.822 L47.605,4.120 C47.605,3.649 47.986,3.268 48.457,3.268 L56.969,3.268 C57.440,3.268 57.821,3.649 57.821,4.120 L57.821,9.227 L57.821,12.633 L57.821,39.023 L57.821,44.132 C57.821,44.603 57.440,44.984 56.969,44.984 ZM7.764,39.977 L13.884,42.964 L15.644,39.356 L9.403,36.615 L7.764,39.977 ZM10.151,35.083 L15.009,37.217 L16.391,37.824 L27.469,15.115 L21.306,12.214 L10.151,35.083 ZM23.440,7.842 L22.054,10.684 L26.098,12.587 L28.216,13.584 L29.560,10.828 L23.440,7.842 ZM39.092,7.525 L32.282,7.525 L32.282,9.227 L39.092,9.227 L39.092,7.525 ZM39.092,33.065 L39.092,29.659 L39.092,10.930 L32.282,10.930 L32.282,39.875 L39.092,39.875 L39.092,33.065 ZM39.092,41.578 L32.282,41.578 L32.282,43.281 L39.092,43.281 L39.092,41.578 ZM47.605,12.633 L47.605,9.227 L47.605,7.525 L40.795,7.525 L40.795,10.078 L40.795,28.808 L47.605,28.808 L47.605,12.633 ZM47.605,30.510 L40.795,30.510 L40.795,32.213 L47.605,32.213 L47.605,30.510 ZM47.605,39.023 L47.605,33.916 L40.795,33.916 L40.795,40.727 L40.795,43.281 L47.605,43.281 L47.605,39.023 ZM56.119,4.970 L49.308,4.970 L49.308,6.673 L49.308,8.376 L56.119,8.376 L56.119,4.970 ZM56.119,10.078 L49.308,10.078 L49.308,11.781 L56.119,11.781 L56.119,10.078 ZM56.119,13.484 L49.308,13.484 L49.308,29.659 L49.308,33.065 L49.308,38.173 L56.119,38.173 L56.119,13.484 ZM56.119,39.875 L49.308,39.875 L49.308,43.281 L56.119,43.281 L56.119,39.875 ZM52.713,27.956 C53.184,27.956 53.565,28.338 53.565,28.808 L53.565,35.619 C53.565,36.090 53.184,36.470 52.713,36.470 C52.243,36.470 51.862,36.090 51.862,35.619 L51.862,28.808 C51.862,28.338 52.243,27.956 52.713,27.956 ZM43.349,11.781 L45.051,11.781 C45.522,11.781 45.903,12.163 45.903,12.633 C45.903,13.104 45.522,13.484 45.051,13.484 L43.349,13.484 C42.878,13.484 42.498,13.104 42.498,12.633 C42.498,12.163 42.878,11.781 43.349,11.781 ZM43.349,15.187 L45.051,15.187 C45.522,15.187 45.903,15.567 45.903,16.038 C45.903,16.508 45.522,16.889 45.051,16.889 L43.349,16.889 C42.878,16.889 42.498,16.508 42.498,16.038 C42.498,15.567 42.878,15.187 43.349,15.187 ZM35.688,18.591 C36.158,18.591 36.539,18.973 36.539,19.443 L36.539,23.132 C36.539,23.603 36.158,23.984 35.688,23.984 C35.217,23.984 34.836,23.603 34.836,23.132 L34.836,19.443 C34.836,18.973 35.217,18.591 35.688,18.591 ZM35.688,27.389 C36.158,27.389 36.539,27.770 36.539,28.240 L36.539,35.619 C36.539,36.090 36.158,36.470 35.688,36.470 C35.217,36.470 34.836,36.090 34.836,35.619 L34.836,28.240 C34.836,27.770 35.217,27.389 35.688,27.389 ZM23.679,17.270 L22.403,19.824 C22.254,20.122 21.953,20.294 21.641,20.294 C21.512,20.294 21.383,20.266 21.260,20.205 C20.839,19.994 20.670,19.483 20.880,19.063 L22.156,16.508 C22.367,16.089 22.878,15.919 23.299,16.128 C23.720,16.338 23.890,16.850 23.679,17.270 Z"/>
</g>
</svg>