<svg 
 xmlns="http://www.w3.org/2000/svg"
 xmlns:xlink="http://www.w3.org/1999/xlink"
 width="47px" height="39px">
<defs>
<filter filterUnits="userSpaceOnUse" id="Filter_0" x="0px" y="0px" width="47px" height="39px"  >
    <feOffset in="SourceAlpha" dx="0" dy="0" />
    <feGaussianBlur result="blurOut" stdDeviation="2.449" />
    <feFlood flood-color="rgb(187, 142, 255)" result="floodOut" />
    <feComposite operator="atop" in="floodOut" in2="blurOut" />
    <feComponentTransfer><feFuncA type="linear" slope="1"/></feComponentTransfer>
    <feMerge>
    <feMergeNode/>
    <feMergeNode in="SourceGraphic"/>
  </feMerge>
</filter>

</defs>
<g filter="url(#Filter_0)">
<path fill-rule="evenodd"  fill="rgb(195, 164, 252)"
 d="M38.552,20.641 L7.448,20.641 C6.494,20.641 5.720,19.866 5.720,18.911 L5.720,7.382 C5.720,6.427 6.494,5.652 7.448,5.652 L38.552,5.652 C39.506,5.652 40.280,6.427 40.280,7.382 L40.280,18.911 C40.280,19.866 39.506,20.641 38.552,20.641 ZM9.752,19.488 L36.248,19.488 L36.248,18.335 L9.752,18.335 L9.752,19.488 ZM9.752,17.182 L36.248,17.182 L36.248,16.029 L9.752,16.029 L9.752,17.182 ZM39.128,7.382 C39.128,7.063 38.870,6.805 38.552,6.805 L7.448,6.805 C7.130,6.805 6.872,7.063 6.872,7.382 L6.872,18.911 C6.872,19.230 7.130,19.488 7.448,19.488 L8.600,19.488 L8.600,14.876 L37.400,14.876 L37.400,19.488 L38.552,19.488 C38.870,19.488 39.128,19.230 39.128,18.911 L39.128,7.382 ZM36.824,7.958 L37.976,7.958 L37.976,9.111 L36.824,9.111 L36.824,7.958 ZM34.520,7.958 L35.672,7.958 L35.672,9.111 L34.520,9.111 L34.520,7.958 ZM17.240,9.687 L28.760,9.687 L28.760,10.840 L17.240,10.840 L17.240,9.687 ZM7.736,31.069 C9.772,29.041 10.912,26.283 10.904,23.408 L10.904,22.370 C10.904,22.052 11.162,21.794 11.480,21.794 C11.798,21.794 12.056,22.052 12.056,22.370 L12.056,23.408 C12.065,26.589 10.803,29.641 8.550,31.884 L7.859,32.577 C7.715,32.726 7.501,32.786 7.299,32.733 C7.098,32.681 6.940,32.524 6.888,32.322 C6.835,32.121 6.895,31.906 7.045,31.761 L7.736,31.069 ZM16.664,25.212 L16.664,23.523 C16.664,23.205 16.922,22.946 17.240,22.946 C17.558,22.946 17.816,23.205 17.816,23.523 L17.816,25.212 C17.823,27.976 16.726,30.628 14.767,32.578 C14.623,32.727 14.408,32.787 14.207,32.735 C14.006,32.682 13.848,32.525 13.796,32.323 C13.743,32.122 13.803,31.907 13.953,31.763 C15.695,30.029 16.671,27.670 16.664,25.212 ZM22.424,22.370 C22.742,22.370 23.000,22.628 23.000,22.946 L23.000,32.170 C23.000,32.489 22.742,32.747 22.424,32.747 C22.106,32.747 21.848,32.489 21.848,32.170 L21.848,22.946 C21.848,22.628 22.106,22.370 22.424,22.370 ZM28.760,22.946 C29.078,22.946 29.336,23.205 29.336,23.523 L29.336,25.212 C29.329,27.670 30.305,30.029 32.047,31.763 C32.265,31.989 32.262,32.348 32.040,32.571 C31.818,32.793 31.459,32.796 31.233,32.578 C29.274,30.628 28.176,27.976 28.184,25.212 L28.184,23.523 C28.184,23.205 28.442,22.946 28.760,22.946 ZM34.520,21.794 C34.838,21.794 35.096,22.052 35.096,22.370 L35.096,23.408 C35.088,26.283 36.230,29.042 38.267,31.069 L38.958,31.761 C39.176,31.988 39.173,32.347 38.951,32.570 C38.729,32.792 38.370,32.795 38.144,32.577 L37.452,31.884 C35.199,29.641 33.935,26.589 33.944,23.408 L33.944,22.370 C33.944,22.052 34.202,21.794 34.520,21.794 Z"/>
</g>
</svg>