<svg 
 xmlns="http://www.w3.org/2000/svg"
 xmlns:xlink="http://www.w3.org/1999/xlink"
 width="58px" height="52px">
<defs>
<filter filterUnits="userSpaceOnUse" id="Filter_0" x="0px" y="0px" width="58px" height="52px"  >
    <feOffset in="SourceAlpha" dx="0" dy="0" />
    <feGaussianBlur result="blurOut" stdDeviation="2.449" />
    <feFlood flood-color="rgb(187, 142, 255)" result="floodOut" />
    <feComposite operator="atop" in="floodOut" in2="blurOut" />
    <feComponentTransfer><feFuncA type="linear" slope="1"/></feComponentTransfer>
    <feMerge>
    <feMergeNode/>
    <feMergeNode in="SourceGraphic"/>
  </feMerge>
</filter>

</defs>
<g filter="url(#Filter_0)">
<path fill-rule="evenodd"  fill="rgb(195, 164, 252)"
 d="M51.502,18.705 L50.219,22.633 L48.936,26.561 C48.892,26.696 48.809,26.814 48.698,26.901 C48.389,27.141 47.945,27.086 47.705,26.777 L44.983,23.734 L42.229,20.659 C42.145,20.563 42.088,20.447 42.064,20.321 C41.992,19.937 42.244,19.566 42.628,19.494 L46.662,18.665 L50.699,17.816 C51.081,17.737 51.454,17.982 51.534,18.365 C51.552,18.479 51.541,18.596 51.502,18.705 ZM46.949,20.054 L44.111,20.651 L46.046,22.813 L47.981,24.975 L48.884,22.217 L49.787,19.458 L46.949,20.054 ZM32.753,7.274 C22.708,4.862 12.614,11.065 10.207,21.128 C10.203,21.148 10.198,21.169 10.192,21.190 C10.084,21.566 9.693,21.783 9.317,21.676 C8.941,21.568 8.724,21.175 8.832,20.799 C10.280,14.742 14.443,9.697 20.109,7.133 C30.232,2.550 42.147,7.055 46.721,17.195 L45.307,17.492 C42.885,12.356 38.268,8.598 32.753,7.274 ZM11.806,27.246 L14.560,30.320 C14.644,30.416 14.701,30.533 14.724,30.658 C14.797,31.043 14.544,31.413 14.160,31.486 L10.107,32.335 L6.070,33.183 C5.956,33.204 5.839,33.196 5.729,33.161 C5.357,33.042 5.151,32.643 5.270,32.271 L6.557,28.347 L7.852,24.419 C7.896,24.284 7.979,24.165 8.091,24.078 C8.399,23.838 8.844,23.893 9.084,24.202 L11.806,27.246 ZM7.900,28.783 L6.997,31.546 L9.839,30.945 L12.677,30.349 L10.742,28.187 L8.808,26.024 L7.900,28.783 ZM21.414,26.768 C21.053,26.620 20.879,26.206 21.027,25.844 L25.284,12.795 C25.379,12.504 25.650,12.307 25.956,12.306 L35.106,12.306 C35.496,12.306 35.813,12.624 35.813,13.015 C35.814,13.153 35.775,13.288 35.701,13.404 L30.433,23.462 L34.582,23.462 C34.774,23.455 34.959,23.527 35.097,23.661 C35.378,23.933 35.385,24.382 35.114,24.663 L23.286,38.445 C23.094,38.665 22.788,38.744 22.515,38.646 C22.147,38.515 21.955,38.109 22.087,37.740 L24.885,26.821 L21.687,26.821 C21.593,26.822 21.501,26.804 21.414,26.768 ZM25.780,25.420 C25.837,25.420 25.894,25.427 25.949,25.441 C26.328,25.536 26.558,25.921 26.464,26.301 L24.169,35.222 L33.035,24.895 L29.266,24.895 C29.154,24.895 29.043,24.868 28.943,24.817 C28.596,24.638 28.459,24.210 28.638,23.862 L33.934,13.728 L26.468,13.728 L22.662,25.420 L25.780,25.420 ZM24.041,43.723 C34.087,46.130 44.179,39.924 46.582,29.860 C46.673,29.480 47.053,29.246 47.433,29.335 C47.437,29.337 47.442,29.338 47.446,29.339 C47.824,29.435 48.053,29.821 47.957,30.201 C46.508,36.257 42.345,41.302 36.680,43.867 C26.557,48.450 14.642,43.944 10.067,33.804 L11.482,33.508 C13.905,38.645 18.525,42.402 24.041,43.723 Z"/>
</g>
</svg>