<svg 
 xmlns="http://www.w3.org/2000/svg"
 xmlns:xlink="http://www.w3.org/1999/xlink"
 width="46px" height="43px">
<defs>
<filter filterUnits="userSpaceOnUse" id="Filter_0" x="0px" y="0px" width="46px" height="43px"  >
    <feOffset in="SourceAlpha" dx="0" dy="0" />
    <feGaussianBlur result="blurOut" stdDeviation="2.449" />
    <feFlood flood-color="rgb(187, 142, 255)" result="floodOut" />
    <feComposite operator="atop" in="floodOut" in2="blurOut" />
    <feComponentTransfer><feFuncA type="linear" slope="1"/></feComponentTransfer>
    <feMerge>
    <feMergeNode/>
    <feMergeNode in="SourceGraphic"/>
  </feMerge>
</filter>

</defs>
<g filter="url(#Filter_0)">
<path fill-rule="evenodd"  fill="rgb(195, 164, 252)"
 d="M35.437,14.907 L35.437,20.687 L35.437,21.656 L34.500,21.656 L22.656,21.656 L22.656,27.092 C25.164,27.249 27.156,29.319 27.156,31.875 C27.156,34.533 25.009,36.687 22.359,36.687 C19.710,36.687 17.562,34.533 17.562,31.875 C17.562,29.448 19.359,27.461 21.687,27.130 L21.687,21.656 L10.187,21.656 L10.187,27.095 C12.681,27.268 14.656,29.330 14.656,31.875 C14.656,34.533 12.509,36.687 9.859,36.687 C7.210,36.687 5.062,34.533 5.062,31.875 C5.062,29.437 6.875,27.444 9.219,27.127 L9.219,21.656 L9.219,20.687 L9.219,14.873 C6.875,14.556 5.062,12.562 5.062,10.125 C5.062,7.467 7.210,5.312 9.859,5.312 C12.509,5.312 14.656,7.467 14.656,10.125 C14.656,12.670 12.681,14.732 10.187,14.904 L10.187,20.687 L21.687,20.687 L21.687,14.869 C19.359,14.539 17.562,12.552 17.562,10.125 C17.562,7.467 19.710,5.312 22.359,5.312 C25.009,5.312 27.156,7.467 27.156,10.125 C27.156,12.681 25.164,14.751 22.656,14.907 L22.656,20.687 L34.500,20.687 L34.500,14.873 C32.157,14.556 30.344,12.562 30.344,10.125 C30.344,7.467 32.491,5.312 35.141,5.312 C37.790,5.312 39.937,7.467 39.937,10.125 C39.937,12.681 37.946,14.751 35.437,14.907 ZM13.594,10.109 C13.594,8.047 11.922,6.375 9.859,6.375 C7.797,6.375 6.125,8.047 6.125,10.109 C6.125,12.171 7.797,13.843 9.859,13.843 C11.922,13.843 13.594,12.171 13.594,10.109 ZM9.859,28.156 C7.797,28.156 6.125,29.828 6.125,31.890 C6.125,33.953 7.797,35.625 9.859,35.625 C11.922,35.625 13.594,33.953 13.594,31.890 C13.594,29.828 11.922,28.156 9.859,28.156 ZM26.062,10.109 C26.062,8.047 24.390,6.375 22.328,6.375 C20.266,6.375 18.594,8.047 18.594,10.109 C18.594,12.171 20.266,13.843 22.328,13.843 C24.390,13.843 26.062,12.171 26.062,10.109 ZM22.328,28.156 C20.266,28.156 18.594,29.828 18.594,31.890 C18.594,33.953 20.266,35.625 22.328,35.625 C24.390,35.625 26.062,33.953 26.062,31.890 C26.062,29.828 24.390,28.156 22.328,28.156 ZM35.141,6.375 C33.078,6.375 31.406,8.047 31.406,10.109 C31.406,12.171 33.078,13.843 35.141,13.843 C37.203,13.843 38.875,12.171 38.875,10.109 C38.875,8.047 37.203,6.375 35.141,6.375 Z"/>
</g>
</svg>