<svg 
 xmlns="http://www.w3.org/2000/svg"
 xmlns:xlink="http://www.w3.org/1999/xlink"
 width="45px" height="45px">
<defs>
<filter filterUnits="userSpaceOnUse" id="Filter_0" x="0px" y="0px" width="45px" height="45px"  >
    <feOffset in="SourceAlpha" dx="0" dy="0" />
    <feGaussianBlur result="blurOut" stdDeviation="2.449" />
    <feFlood flood-color="rgb(187, 142, 255)" result="floodOut" />
    <feComposite operator="atop" in="floodOut" in2="blurOut" />
    <feComponentTransfer><feFuncA type="linear" slope="1"/></feComponentTransfer>
    <feMerge>
    <feMergeNode/>
    <feMergeNode in="SourceGraphic"/>
  </feMerge>
</filter>

</defs>
<g filter="url(#Filter_0)">
<path fill-rule="evenodd"  fill="rgb(195, 164, 252)"
 d="M38.430,21.193 C38.320,21.312 38.169,21.372 38.018,21.372 C37.880,21.372 37.743,21.323 37.634,21.222 L35.766,19.491 L35.766,38.222 L26.757,38.222 L17.749,38.222 L8.740,38.222 L8.740,19.492 L6.872,21.223 C6.644,21.433 6.287,21.421 6.076,21.194 C5.864,20.966 5.878,20.611 6.105,20.400 L22.253,5.442 L38.401,20.400 C38.629,20.611 38.642,20.966 38.430,21.193 ZM34.640,18.448 L22.253,6.974 L9.866,18.448 L9.866,37.099 L17.749,37.099 L18.875,37.099 L25.631,37.099 L26.757,37.099 L34.640,37.099 L34.640,18.448 ZM25.168,30.365 C23.724,31.599 22.294,32.242 22.234,32.268 L22.000,32.373 L21.766,32.268 C21.706,32.241 20.276,31.599 18.832,30.365 C17.974,29.632 17.287,28.839 16.791,28.011 C16.158,26.951 15.837,25.831 15.837,24.683 L15.837,21.206 C15.837,20.368 16.437,19.653 17.264,19.504 C18.660,19.254 19.946,18.492 20.589,18.059 C21.008,17.776 21.496,17.627 22.000,17.627 C22.504,17.627 22.992,17.776 23.411,18.059 C24.054,18.492 25.339,19.254 26.736,19.504 C27.563,19.653 28.163,20.368 28.163,21.206 L28.163,24.683 C28.163,25.831 27.842,26.951 27.208,28.011 C26.713,28.839 26.026,29.632 25.168,30.365 ZM27.011,21.206 C27.011,20.927 26.810,20.689 26.533,20.639 C24.928,20.351 23.485,19.498 22.768,19.015 C22.539,18.861 22.274,18.779 22.000,18.779 C21.726,18.779 21.461,18.861 21.232,19.015 C20.515,19.498 19.071,20.351 17.467,20.639 C17.190,20.689 16.989,20.927 16.989,21.206 L16.989,24.683 C16.989,28.321 20.981,30.584 22.000,31.102 C22.443,30.877 23.450,30.321 24.441,29.470 C26.146,28.006 27.011,26.395 27.011,24.683 L27.011,21.206 ZM18.723,24.920 L19.517,24.086 L21.382,25.861 L24.739,22.122 L25.596,22.891 L21.446,27.514 L18.723,24.920 Z"/>
</g>
</svg>