<svg 
 xmlns="http://www.w3.org/2000/svg"
 xmlns:xlink="http://www.w3.org/1999/xlink"
 width="49px" height="49px">
<defs>
<filter filterUnits="userSpaceOnUse" id="Filter_0" x="0px" y="0px" width="49px" height="49px"  >
    <feOffset in="SourceAlpha" dx="0" dy="0" />
    <feGaussianBlur result="blurOut" stdDeviation="2.449" />
    <feFlood flood-color="rgb(187, 142, 255)" result="floodOut" />
    <feComposite operator="atop" in="floodOut" in2="blurOut" />
    <feComponentTransfer><feFuncA type="linear" slope="1"/></feComponentTransfer>
    <feMerge>
    <feMergeNode/>
    <feMergeNode in="SourceGraphic"/>
  </feMerge>
</filter>

</defs>
<g filter="url(#Filter_0)">
<path fill-rule="evenodd"  fill="rgb(195, 164, 252)"
 d="M40.954,28.199 L37.418,28.199 C36.849,28.199 36.379,28.512 36.162,29.038 C35.945,29.562 36.055,30.116 36.456,30.517 L38.957,33.017 C39.324,33.385 39.527,33.874 39.527,34.393 C39.527,34.913 39.324,35.403 38.957,35.770 L35.770,38.957 C35.035,39.692 33.753,39.693 33.017,38.957 L30.517,36.457 C30.115,36.056 29.563,35.944 29.037,36.163 C28.512,36.381 28.199,36.849 28.199,37.417 L28.199,40.954 C28.199,42.027 27.326,42.900 26.253,42.900 L21.746,42.900 C20.673,42.900 19.800,42.027 19.800,40.954 L19.800,37.417 C19.800,36.849 19.487,36.381 18.962,36.163 C18.436,35.945 17.884,36.056 17.482,36.457 L14.983,38.957 C14.246,39.694 12.965,39.693 12.229,38.957 L9.042,35.770 C8.675,35.402 8.473,34.913 8.473,34.393 C8.473,33.874 8.675,33.385 9.042,33.017 L11.543,30.517 C11.944,30.116 12.054,29.562 11.837,29.038 C11.619,28.512 11.151,28.199 10.582,28.199 L7.046,28.199 C5.973,28.199 5.100,27.327 5.100,26.253 L5.100,21.746 C5.100,20.673 5.973,19.800 7.046,19.800 L10.582,19.800 C11.151,19.800 11.620,19.487 11.837,18.962 C12.054,18.437 11.944,17.884 11.543,17.482 L9.042,14.982 C8.675,14.614 8.473,14.125 8.473,13.606 C8.473,13.086 8.675,12.597 9.042,12.229 L12.229,9.042 C12.964,8.307 14.246,8.306 14.983,9.042 L17.482,11.542 C17.884,11.943 18.438,12.056 18.962,11.836 C19.487,11.619 19.800,11.150 19.800,10.582 L19.800,7.046 C19.800,5.973 20.673,5.100 21.746,5.100 L26.254,5.100 C27.327,5.100 28.200,5.973 28.200,7.046 L28.200,10.582 C28.200,11.150 28.513,11.619 29.038,11.836 C29.561,12.055 30.116,11.943 30.518,11.542 L33.017,9.042 C33.754,8.306 35.035,8.307 35.770,9.042 L38.958,12.229 C39.325,12.598 39.527,13.086 39.527,13.606 C39.527,14.125 39.325,14.615 38.958,14.982 L36.457,17.482 C36.056,17.884 35.945,18.437 36.163,18.962 C36.381,19.487 36.849,19.800 37.418,19.800 L40.954,19.800 C42.027,19.800 42.900,20.673 42.900,21.746 L42.900,26.254 C42.900,27.327 42.027,28.199 40.954,28.199 ZM41.500,21.746 C41.500,21.445 41.255,21.199 40.954,21.200 L37.418,21.200 C36.281,21.200 35.304,20.548 34.870,19.498 C34.434,18.448 34.664,17.296 35.467,16.492 L37.968,13.993 C38.181,13.780 38.181,13.433 37.968,13.219 L34.781,10.033 C34.569,9.819 34.222,9.819 34.008,10.033 L31.508,12.533 C30.705,13.336 29.554,13.566 28.502,13.130 C27.452,12.695 26.800,11.719 26.800,10.582 L26.800,7.046 C26.800,6.745 26.555,6.500 26.253,6.500 L21.746,6.500 C21.445,6.500 21.200,6.745 21.200,7.046 L21.200,10.582 C21.200,11.719 20.547,12.695 19.497,13.130 C18.446,13.565 17.295,13.335 16.492,12.532 L13.992,10.032 C13.779,9.818 13.432,9.818 13.219,10.032 L10.032,13.219 C9.819,13.432 9.819,13.778 10.032,13.992 L12.533,16.491 C13.337,17.295 13.566,18.447 13.130,19.497 C12.696,20.547 11.719,21.199 10.582,21.199 L7.046,21.199 C6.745,21.199 6.500,21.445 6.500,21.746 L6.500,26.254 C6.500,26.555 6.745,26.800 7.046,26.800 L10.582,26.800 C11.719,26.800 12.696,27.452 13.130,28.501 C13.566,29.551 13.336,30.704 12.533,31.507 L10.032,34.007 C9.819,34.220 9.819,34.566 10.032,34.780 L13.219,37.967 C13.431,38.179 13.778,38.181 13.992,37.967 L16.492,35.466 C17.027,34.932 17.715,34.652 18.424,34.652 C18.783,34.652 19.145,34.723 19.497,34.869 C20.547,35.304 21.200,36.280 21.200,37.417 L21.200,40.954 C21.200,41.255 21.445,41.499 21.746,41.499 L26.254,41.499 C26.555,41.499 26.800,41.255 26.800,40.954 L26.800,37.417 C26.800,36.280 27.452,35.304 28.502,34.869 C29.552,34.435 30.704,34.663 31.508,35.467 L34.008,37.967 C34.221,38.181 34.568,38.180 34.781,37.967 L37.968,34.780 C38.181,34.568 38.181,34.221 37.968,34.007 L35.467,31.508 C34.663,30.704 34.434,29.552 34.870,28.502 C35.304,27.452 36.281,26.800 37.418,26.800 L40.954,26.800 C41.255,26.800 41.500,26.555 41.500,26.254 L41.500,21.746 ZM24.000,30.300 C20.526,30.300 17.700,27.474 17.700,24.000 C17.700,20.526 20.526,17.700 24.000,17.700 C27.474,17.700 30.300,20.526 30.300,24.000 C30.300,27.474 27.474,30.300 24.000,30.300 ZM24.000,19.100 C21.299,19.100 19.100,21.298 19.100,24.000 C19.100,26.701 21.299,28.900 24.000,28.900 C26.701,28.900 28.900,26.701 28.900,24.000 C28.900,21.298 26.701,19.100 24.000,19.100 Z"/>
</g>
</svg>